<svg aria-hidden="true" style="position: absolute; width: 0; height: 0; overflow: hidden;" version="1.1" xmlns="http://www.w3.org/2000/svg" xmlns:xlink="http://www.w3.org/1999/xlink">
<defs>
<symbol id="icon-ac" viewBox="0 0 32 32">
<path d="M3.428-0.056c-0.924 0-1.812 0.365-2.466 1.019s-1.019 1.542-1.019 2.466v11.428c0 0.924 0.365 1.812 1.019 2.466s1.542 1.022 2.466 1.022h25.144c0.924 0 1.812-0.368 2.466-1.022s1.019-1.542 1.019-2.466v-11.428c0-0.924-0.365-1.812-1.019-2.466s-1.542-1.019-2.466-1.019zM3.428 2.344h25.144c0.288 0 0.565 0.112 0.769 0.316s0.316 0.48 0.316 0.769v11.428c0 0.288-0.112 0.565-0.316 0.769s-0.48 0.319-0.769 0.319h-25.144c-0.288 0-0.562-0.115-0.766-0.319s-0.319-0.48-0.319-0.769v-11.428c0-0.288 0.115-0.565 0.319-0.769s0.477-0.316 0.766-0.316z"></path>
<path d="M9.144 9.084c-0.924 0-1.812 0.368-2.466 1.022s-1.022 1.542-1.022 2.466v4.572c0 0.663 0.537 1.2 1.2 1.2v0c0.663 0 1.2-0.537 1.2-1.2v0-4.572c0-0.288 0.115-0.565 0.319-0.769s0.48-0.319 0.769-0.319h13.713c0.288 0 0.565 0.115 0.769 0.319s0.319 0.48 0.319 0.769v4.572c0 0.663 0.537 1.2 1.2 1.2v0c0.663 0 1.2-0.537 1.2-1.2v0-4.572c0-0.924-0.369-1.812-1.022-2.466s-1.542-1.022-2.466-1.022zM9.144 21.656c-0.663 0-1.2 0.537-1.2 1.2v0 2.516c0 0.531-0.212 1.037-0.588 1.413s-0.882 0.587-1.413 0.587h-0.228c-0.663 0-1.2 0.537-1.2 1.2v0c0 0.663 0.537 1.2 1.2 1.2v0h0.228c1.167 0 2.285-0.463 3.109-1.288 0-0 0-0.001 0-0.002s0-0.001 0-0.002v0c0.825-0.825 1.291-1.943 1.291-3.109v-2.516c0-0.663-0.537-1.2-1.2-1.2v0zM16 21.656c-0.663 0-1.2 0.537-1.2 1.2v0 8c0 0.663 0.537 1.2 1.2 1.2v0c0.663 0 1.2-0.537 1.2-1.2v0-8c0-0.663-0.537-1.2-1.2-1.2v0zM22.856 21.656c-0.663 0-1.2 0.537-1.2 1.2v0 2.516c0 1.166 0.466 2.285 1.291 3.109s1.943 1.291 3.109 1.291h0.228c0.663 0 1.2-0.537 1.2-1.2v0c0-0.663-0.537-1.2-1.2-1.2v0h-0.228c-0.531 0-1.037-0.212-1.413-0.587s-0.587-0.882-0.587-1.413v-2.516c0-0.663-0.537-1.2-1.2-1.2v0z"></path>
</symbol>
<symbol id="icon-alcove" viewBox="0 0 46 32">
<path d="M2.608 1.8h12.409c0.105 0 0.203-0.040 0.278-0.112l1.192-1.163c0.346-0.338 0.807-0.524 1.297-0.524h18.817c0.876 0 1.69 0.425 2.176 1.136l2.255 3.3c0.32 0.468 0.349 1.067 0.077 1.564s-0.8 0.805-1.377 0.805h-9.698v0.956h4.967c1.317 0 2.501 0.763 3.018 1.945l2.908 6.65 2.548 0.994c1.36 0.531 2.24 1.797 2.24 3.227v6.158c0 0.918-0.766 1.666-1.708 1.666h-2.964c-0.345 2.039-2.164 3.599-4.35 3.599s-4.005-1.561-4.35-3.599h-16.203c-0.345 2.039-2.164 3.599-4.35 3.599s-4.005-1.561-4.35-3.599h-5.921c-0.837 0-1.518-0.664-1.518-1.481v-22.576c0-1.403 1.17-2.544 2.608-2.544zM36.692 30.594c1.637 0 2.969-1.299 2.969-2.896s-1.332-2.896-2.969-2.896c-1.637 0-2.969 1.299-2.969 2.896s1.332 2.896 2.969 2.896zM30.034 26.995h2.307c0.006-0.035 0.013-0.070 0.020-0.105 0.005-0.024 0.009-0.047 0.014-0.071 0.012-0.055 0.025-0.11 0.039-0.164 0.003-0.011 0.005-0.023 0.009-0.034 0.017-0.066 0.036-0.13 0.057-0.195 0.006-0.019 0.013-0.037 0.019-0.056 0.015-0.045 0.031-0.090 0.047-0.134 0.009-0.024 0.018-0.047 0.028-0.071 0.015-0.039 0.030-0.078 0.047-0.116 0.010-0.025 0.022-0.050 0.033-0.075 0.016-0.037 0.032-0.072 0.050-0.108 0.013-0.025 0.025-0.050 0.038-0.075 0.017-0.034 0.036-0.069 0.054-0.103 0.013-0.025 0.027-0.049 0.041-0.074 0.019-0.034 0.039-0.067 0.059-0.101 0.014-0.024 0.029-0.047 0.043-0.071 0.022-0.034 0.044-0.067 0.066-0.101 0.015-0.022 0.029-0.044 0.044-0.065 0.025-0.035 0.051-0.070 0.077-0.105 0.013-0.018 0.026-0.037 0.040-0.055 0.036-0.046 0.072-0.090 0.109-0.135 0.005-0.007 0.010-0.014 0.016-0.020 0.043-0.051 0.087-0.1 0.132-0.148 0.014-0.015 0.028-0.029 0.043-0.044 0.032-0.033 0.063-0.066 0.096-0.099 0.018-0.018 0.038-0.035 0.056-0.053 0.029-0.028 0.059-0.056 0.090-0.084 0.020-0.018 0.041-0.036 0.062-0.054 0.030-0.026 0.060-0.051 0.090-0.077l0.066-0.052c0.031-0.024 0.062-0.048 0.093-0.071 0.022-0.017 0.045-0.034 0.069-0.050 0.032-0.023 0.064-0.045 0.097-0.068 0.023-0.015 0.046-0.031 0.069-0.046 0.034-0.023 0.069-0.044 0.104-0.065 0.022-0.014 0.045-0.028 0.068-0.041 0.038-0.023 0.077-0.044 0.116-0.065 0.020-0.011 0.040-0.023 0.059-0.033 0.056-0.029 0.112-0.057 0.168-0.084 0.005-0.002 0.009-0.004 0.013-0.006 0.061-0.029 0.123-0.056 0.186-0.082 0.020-0.008 0.041-0.016 0.061-0.024 0.043-0.017 0.086-0.034 0.13-0.050 0.025-0.009 0.050-0.017 0.075-0.026 0.040-0.014 0.080-0.027 0.12-0.039 0.027-0.008 0.054-0.016 0.082-0.024 0.039-0.011 0.078-0.023 0.118-0.033 0.028-0.007 0.056-0.015 0.085-0.021 0.039-0.009 0.078-0.018 0.118-0.026 0.029-0.006 0.058-0.012 0.087-0.018 0.040-0.007 0.081-0.015 0.122-0.021 0.029-0.005 0.057-0.010 0.086-0.014 0.042-0.006 0.085-0.011 0.128-0.016 0.027-0.003 0.055-0.007 0.082-0.009 0.047-0.004 0.095-0.008 0.143-0.011 0.024-0.002 0.047-0.004 0.070-0.005 0.072-0.004 0.144-0.006 0.216-0.006s0.144 0.002 0.216 0.006c0.024 0.001 0.047 0.003 0.070 0.005 0.048 0.003 0.096 0.006 0.143 0.011 0.028 0.002 0.055 0.006 0.082 0.009 0.043 0.005 0.086 0.010 0.128 0.016 0.029 0.004 0.058 0.008 0.087 0.014 0.041 0.006 0.081 0.014 0.122 0.021 0.029 0.006 0.058 0.012 0.087 0.018 0.040 0.008 0.079 0.017 0.118 0.026 0.029 0.007 0.057 0.014 0.085 0.021 0.039 0.010 0.078 0.021 0.118 0.033 0.028 0.008 0.055 0.016 0.082 0.024 0.040 0.012 0.080 0.026 0.12 0.039 0.025 0.009 0.050 0.017 0.075 0.026 0.044 0.016 0.087 0.033 0.13 0.050 0.020 0.008 0.041 0.016 0.061 0.024 0.062 0.026 0.125 0.053 0.186 0.082 0.005 0.002 0.009 0.005 0.013 0.006 0.057 0.027 0.112 0.055 0.168 0.084 0.020 0.011 0.039 0.022 0.059 0.033 0.039 0.021 0.078 0.043 0.116 0.065 0.023 0.014 0.045 0.028 0.068 0.041 0.035 0.021 0.070 0.043 0.104 0.065 0.023 0.015 0.046 0.031 0.069 0.046 0.033 0.023 0.065 0.044 0.097 0.068 0.023 0.016 0.046 0.033 0.069 0.050 0.031 0.024 0.062 0.047 0.093 0.071l0.066 0.052c0.031 0.025 0.061 0.051 0.090 0.077 0.021 0.018 0.041 0.036 0.062 0.054 0.031 0.028 0.060 0.056 0.090 0.084 0.018 0.017 0.037 0.035 0.056 0.053 0.033 0.033 0.065 0.066 0.096 0.099 0.014 0.015 0.029 0.029 0.043 0.044 0.045 0.048 0.089 0.098 0.132 0.148 0.006 0.007 0.011 0.014 0.016 0.020 0.037 0.044 0.073 0.089 0.109 0.135 0.014 0.018 0.027 0.037 0.040 0.055 0.026 0.035 0.052 0.070 0.077 0.105 0.015 0.021 0.029 0.043 0.044 0.065 0.022 0.034 0.044 0.067 0.066 0.101 0.014 0.024 0.029 0.047 0.043 0.071 0.020 0.033 0.040 0.067 0.059 0.101 0.014 0.025 0.028 0.049 0.041 0.074 0.018 0.034 0.037 0.069 0.054 0.103 0.013 0.025 0.025 0.050 0.038 0.075 0.017 0.036 0.033 0.071 0.050 0.108 0.011 0.025 0.023 0.049 0.033 0.075 0.017 0.038 0.032 0.077 0.047 0.116 0.010 0.024 0.019 0.047 0.028 0.071 0.016 0.044 0.032 0.089 0.047 0.134 0.006 0.019 0.013 0.038 0.019 0.056 0.020 0.064 0.039 0.129 0.056 0.195 0.003 0.011 0.006 0.023 0.009 0.034 0.014 0.055 0.027 0.109 0.039 0.164 0.005 0.024 0.009 0.047 0.014 0.071 0.007 0.035 0.014 0.069 0.020 0.105h2.963c0.147 0 0.266-0.116 0.266-0.26v-2.946h-1.124v-1.406h1.124v-1.806c0-0.851-0.523-1.606-1.333-1.922l-2.697-1.052h-10.209v9.392zM30.034 16.197h9.257l-2.598-5.939c-0.29-0.662-0.954-1.090-1.692-1.090h-4.967v7.030zM11.789 30.594c1.637 0 2.969-1.299 2.969-2.896s-1.332-2.896-2.969-2.896c-0.051 0-0.102 0.001-0.153 0.004-1.364 0.067-2.488 1.038-2.756 2.309-0.010 0.047-0.019 0.095-0.027 0.143-0.015 0.096-0.025 0.193-0.030 0.291-0.003 0.049-0.004 0.099-0.004 0.149 0 1.597 1.332 2.896 2.969 2.896zM1.441 22.383h1.124v1.406h-1.124v3.131c0 0.041 0.035 0.075 0.077 0.075h5.92c0.006-0.035 0.013-0.069 0.020-0.104 0.005-0.024 0.009-0.048 0.014-0.072 0.012-0.054 0.024-0.107 0.038-0.16 0.003-0.012 0.006-0.025 0.009-0.038 0.017-0.065 0.036-0.129 0.056-0.193 0.006-0.020 0.013-0.039 0.020-0.058 0.015-0.044 0.030-0.089 0.046-0.132 0.009-0.025 0.019-0.048 0.028-0.072 0.015-0.038 0.031-0.077 0.046-0.114 0.011-0.026 0.022-0.051 0.034-0.076 0.016-0.036 0.032-0.071 0.050-0.106 0.012-0.026 0.025-0.051 0.038-0.076 0.017-0.034 0.035-0.068 0.054-0.102 0.014-0.025 0.028-0.049 0.042-0.074 0.020-0.034 0.039-0.067 0.059-0.1 0.014-0.024 0.029-0.048 0.044-0.071 0.021-0.034 0.043-0.067 0.066-0.1 0.014-0.023 0.029-0.045 0.044-0.066 0.025-0.035 0.051-0.070 0.076-0.104 0.014-0.019 0.028-0.038 0.042-0.057 0.035-0.044 0.070-0.088 0.106-0.132 0.006-0.008 0.012-0.016 0.018-0.023 0.043-0.051 0.087-0.1 0.132-0.148 0.014-0.015 0.029-0.030 0.043-0.045 0.032-0.033 0.063-0.066 0.096-0.098 0.018-0.018 0.037-0.035 0.056-0.053 0.029-0.028 0.059-0.056 0.089-0.083 0.020-0.018 0.041-0.036 0.062-0.055 0.029-0.025 0.059-0.051 0.090-0.075 0.022-0.018 0.044-0.036 0.066-0.053 0.030-0.024 0.061-0.047 0.092-0.071 0.022-0.017 0.046-0.034 0.069-0.050 0.032-0.023 0.064-0.045 0.096-0.067 0.024-0.016 0.047-0.031 0.070-0.047 0.034-0.023 0.069-0.044 0.103-0.065 0.023-0.014 0.046-0.028 0.069-0.042 0.038-0.023 0.077-0.044 0.116-0.065 0.020-0.011 0.040-0.023 0.061-0.033 0.055-0.029 0.11-0.057 0.167-0.083 0.005-0.002 0.009-0.005 0.014-0.007 0.061-0.029 0.123-0.056 0.186-0.082 0.020-0.008 0.041-0.016 0.061-0.024 0.043-0.017 0.086-0.034 0.13-0.050 0.025-0.009 0.050-0.017 0.076-0.026 0.039-0.014 0.079-0.027 0.119-0.039 0.027-0.008 0.055-0.016 0.082-0.024 0.039-0.011 0.078-0.023 0.118-0.033 0.028-0.007 0.056-0.015 0.085-0.021 0.039-0.009 0.078-0.018 0.118-0.026 0.029-0.006 0.058-0.012 0.087-0.018 0.040-0.007 0.081-0.015 0.122-0.021 0.029-0.005 0.057-0.010 0.086-0.014 0.042-0.006 0.085-0.011 0.128-0.016 0.027-0.003 0.055-0.007 0.082-0.009 0.047-0.004 0.095-0.008 0.143-0.011 0.024-0.002 0.047-0.004 0.070-0.005 0.072-0.004 0.144-0.006 0.216-0.006s0.144 0.002 0.216 0.006c0.024 0.001 0.047 0.003 0.070 0.005 0.048 0.003 0.096 0.006 0.143 0.011 0.028 0.002 0.055 0.006 0.082 0.009 0.043 0.005 0.086 0.010 0.128 0.016 0.029 0.004 0.058 0.008 0.086 0.014 0.041 0.006 0.081 0.014 0.122 0.021 0.029 0.006 0.058 0.012 0.087 0.018 0.040 0.008 0.079 0.017 0.118 0.026 0.029 0.007 0.057 0.014 0.085 0.021 0.039 0.010 0.078 0.021 0.118 0.033 0.027 0.008 0.055 0.016 0.082 0.024 0.040 0.012 0.080 0.026 0.119 0.039 0.025 0.009 0.051 0.017 0.076 0.026 0.044 0.016 0.086 0.033 0.13 0.050 0.020 0.008 0.041 0.016 0.061 0.024 0.062 0.026 0.124 0.053 0.186 0.082 0.005 0.002 0.010 0.005 0.014 0.007 0.056 0.026 0.112 0.054 0.167 0.083 0.021 0.011 0.040 0.022 0.060 0.033 0.039 0.021 0.078 0.043 0.116 0.065 0.023 0.014 0.046 0.028 0.069 0.042 0.035 0.021 0.069 0.042 0.103 0.065 0.023 0.015 0.046 0.031 0.070 0.047 0.032 0.022 0.065 0.044 0.096 0.067 0.023 0.016 0.046 0.033 0.069 0.050 0.031 0.024 0.062 0.047 0.092 0.071 0.023 0.017 0.044 0.035 0.066 0.053 0.031 0.025 0.061 0.050 0.090 0.076 0.021 0.018 0.042 0.036 0.062 0.054 0.030 0.028 0.060 0.056 0.090 0.084 0.018 0.017 0.037 0.035 0.056 0.053 0.032 0.032 0.065 0.065 0.096 0.098 0.014 0.015 0.029 0.029 0.043 0.044 0.045 0.048 0.089 0.098 0.132 0.148 0.006 0.007 0.012 0.015 0.017 0.021 0.036 0.044 0.073 0.088 0.107 0.134 0.014 0.018 0.028 0.037 0.042 0.055 0.026 0.035 0.052 0.070 0.077 0.105 0.015 0.021 0.029 0.044 0.044 0.066 0.023 0.033 0.044 0.066 0.066 0.1 0.015 0.024 0.029 0.047 0.044 0.071 0.020 0.033 0.040 0.067 0.059 0.101 0.014 0.025 0.028 0.049 0.041 0.074 0.019 0.034 0.037 0.069 0.055 0.103 0.013 0.025 0.025 0.050 0.037 0.075 0.017 0.036 0.034 0.072 0.050 0.108 0.012 0.025 0.023 0.049 0.033 0.075 0.017 0.038 0.032 0.077 0.047 0.116 0.009 0.024 0.018 0.047 0.028 0.071 0.017 0.045 0.032 0.090 0.047 0.135 0.006 0.019 0.013 0.037 0.019 0.055 0.020 0.064 0.039 0.129 0.057 0.195 0.002 0.010 0.005 0.021 0.007 0.031 0.014 0.056 0.028 0.111 0.040 0.168 0.005 0.023 0.009 0.046 0.013 0.069 0.007 0.035 0.014 0.070 0.021 0.106h12.453v-20.893c0-0.388 0.323-0.703 0.721-0.703h10.419c0.018 0 0.073 0 0.107-0.062s0.004-0.106-0.006-0.12l-2.255-3.3c-0.218-0.319-0.583-0.51-0.977-0.51h-18.817c-0.105 0-0.204 0.040-0.278 0.112l-1.192 1.163c-0.346 0.338-0.807 0.524-1.297 0.524h-12.409c-0.643 0-1.167 0.511-1.167 1.138v18.039z"></path>
<path d="M20.116 7.198h4.558c0.921 0 1.67 0.731 1.67 1.629v15.046c0 0.388-0.323 0.703-0.721 0.703h-6.456c-0.398 0-0.721-0.315-0.721-0.703v-15.046c-0.001-0.899 0.748-1.629 1.669-1.629zM19.887 23.17h5.015v-8.267h-5.015v8.267zM19.887 13.497h5.015v-4.669c0-0.123-0.103-0.223-0.229-0.223h-4.558c-0.126 0-0.229 0.1-0.229 0.223v4.669h0.001zM5.536 7.198h8.814c1.019 0 1.848 0.809 1.848 1.802v4.1c0 0.994-0.829 1.802-1.848 1.802h-8.815c-1.019 0-1.848-0.809-1.848-1.802v-4.1c0.001-0.994 0.83-1.802 1.848-1.802zM5.129 13.1c0 0.218 0.182 0.396 0.406 0.396h8.814c0.224 0 0.406-0.178 0.406-0.396v-4.1c0-0.218-0.182-0.396-0.406-0.396h-8.815c-0.224 0-0.406 0.178-0.406 0.396v4.1h0.001z"></path>
</symbol>
<symbol id="icon-automatic" viewBox="0 0 32 32">
<path d="M6.666 2.8c-1.025 0-2.010 0.406-2.734 1.131s-1.131 1.709-1.131 2.734c0 1.025 0.406 2.010 1.131 2.734s1.709 1.134 2.734 1.134 2.010-0.41 2.734-1.134c0.725-0.725 1.134-1.709 1.134-2.734s-0.41-2.010-1.134-2.734c-0.725-0.725-1.709-1.131-2.734-1.131zM6.666 5.2c0.389 0 0.762 0.153 1.037 0.428s0.431 0.648 0.431 1.038c0 0.389-0.156 0.762-0.431 1.037s-0.648 0.431-1.037 0.431c-0.389 0-0.762-0.156-1.037-0.431s-0.428-0.648-0.428-1.037c0-0.389 0.153-0.762 0.428-1.037s0.648-0.428 1.037-0.428zM22.666 9.466c-0.663 0-1.2 0.537-1.2 1.2v0 6.669c0 0.663 0.537 1.2 1.2 1.2v0c0.663 0 1.2-0.537 1.2-1.2v0-1.469h0.8c0.848 0 1.663-0.338 2.262-0.938s0.938-1.414 0.938-2.262-0.338-1.663-0.938-2.262c-0.6-0.6-1.414-0.938-2.262-0.938zM23.866 11.866h0.8c0.213 0 0.415 0.084 0.566 0.234s0.234 0.353 0.234 0.566-0.084 0.415-0.234 0.566c-0.151 0.151-0.353 0.234-0.566 0.234h-0.8zM22.666 21.466c-0.663 0-1.2 0.537-1.2 1.2v0 5.334c0 0.663 0.537 1.2 1.2 1.2h1.334c1.025 0 2.010-0.406 2.734-1.131s1.131-1.709 1.131-2.734c0-1.025-0.406-2.010-1.131-2.734s-1.709-1.134-2.734-1.134zM23.866 23.866h0.134c0.389 0 0.762 0.156 1.038 0.431s0.428 0.648 0.428 1.038c0 0.39-0.153 0.759-0.428 1.034 0 0 0 0.001 0 0.002s0 0.001 0 0.002v-0c-0.275 0.275-0.648 0.428-1.038 0.428h-0.134z"></path>
<path d="M6.666 8.134c-0.663 0-1.2 0.537-1.2 1.2v0 4c0 0.671 0.269 1.316 0.744 1.791s1.119 0.741 1.791 0.741h2.8v8.134c0 0.671 0.266 1.316 0.741 1.791 0 0 0.001 0 0.002 0s0.001 0 0.002 0h-0c0.475 0.474 1.119 0.744 1.791 0.744h4c0.663 0 1.2-0.537 1.2-1.2v0c0-0.663-0.537-1.2-1.2-1.2v0h-4c-0.035 0-0.069-0.017-0.094-0.041-0.025-0.025-0.041-0.058-0.041-0.094v-8.134h4.134c0.663 0 1.2-0.537 1.2-1.2v0c0-0.663-0.537-1.2-1.2-1.2v0h-9.334c-0.036 0-0.068-0.012-0.094-0.037s-0.041-0.058-0.041-0.094v-4c0-0.663-0.537-1.2-1.2-1.2v0z"></path>
</symbol>
<symbol id="icon-bed" viewBox="0 0 32 32">
<path d="M8.497 4.881c-0.958 0.003-1.876 0.385-2.553 1.063s-1.060 1.595-1.063 2.553c0 0 0 0.001 0 0.002s0 0.001 0 0.002v-0 6.262c-0.494 0.245-1.1 0.225-1.497 0.622-0.958 0.958-1.499 2.257-1.503 3.613 0 0 0 0.001 0 0.002s0 0.001 0 0.002v-0 7c0.001 0.618 0.501 1.118 1.119 1.119h0c0.618-0.001 1.118-0.501 1.119-1.119v-7c0.003-0.763 0.307-1.495 0.847-2.034s1.271-0.844 2.034-0.847h18c0.763 0.003 1.495 0.307 2.034 0.847s0.844 1.271 0.847 2.034v7c0.001 0.618 0.501 1.118 1.119 1.119h0c0.618-0.001 1.118-0.501 1.119-1.119v-7c0-0 0-0.001 0-0.002s0-0.001 0-0.002v0c-0.004-1.355-0.545-2.654-1.503-3.612-0.397-0.397-1.003-0.377-1.497-0.622v-6.263c0-0 0-0.001 0-0.002s0-0.001 0-0.002v0c-0.003-0.958-0.385-1.876-1.063-2.553s-1.595-1.060-2.553-1.063c-0 0-0.001 0-0.002 0s-0.001 0-0.002 0h-15c-0 0-0.001 0-0.002 0s-0.001 0-0.002 0h0zM8.5 7.119h15c0.366 0.002 0.716 0.147 0.975 0.406s0.404 0.609 0.406 0.975v5.381h-17.762v-5.381c0.002-0.366 0.147-0.716 0.406-0.975s0.609-0.404 0.975-0.406z"></path>
<path d="M8.997 10.881c-0.825 0.002-1.616 0.332-2.2 0.916s-0.913 1.374-0.916 2.2c0 0 0 0.001 0 0.002s0 0.001 0 0.002v-0 1c0.001 0.618 0.501 1.118 1.119 1.119h0c0.618-0.001 1.118-0.501 1.119-1.119v-1c0.001-0.233 0.094-0.457 0.259-0.622s0.389-0.258 0.622-0.259h5c0.233 0.001 0.457 0.094 0.622 0.259s0.258 0.389 0.259 0.622v1c0.001 0.618 0.501 1.118 1.119 1.119h0c0.618-0.001 1.118-0.501 1.119-1.119v-0.997c0-0.001 0-0.002 0-0.003 0.001-0.233 0.094-0.457 0.259-0.622s0.389-0.258 0.622-0.259h5c0.233 0.001 0.457 0.094 0.622 0.259s0.259 0.391 0.259 0.625v0.997c0.001 0.618 0.501 1.118 1.119 1.119h0c0.618-0.001 1.118-0.501 1.119-1.119v-1c0-0 0-0.001 0-0.002s0-0.001 0-0.002v0c-0.002-0.826-0.332-1.616-0.916-2.2s-1.375-0.913-2.2-0.916c-0 0-0.001 0-0.002 0s-0.001 0-0.002 0h-5c-0 0-0.001 0-0.002 0s-0.001 0-0.002 0h0c-0.749 0.002-1.433 0.345-1.997 0.831-0.563-0.487-1.248-0.829-1.997-0.831-0 0-0.001 0-0.002 0s-0.001 0-0.002 0h-5c-0 0-0.001 0-0.002 0s-0.001 0-0.002 0h0zM4.497 22.881c-0.693 0.002-1.357 0.279-1.847 0.769s-0.767 1.154-0.769 1.847c0 0 0 0.001 0 0.002s0 0.001 0 0.002v-0 0.5c0.001 0.618 0.501 1.118 1.119 1.119h0c0.618-0.001 1.118-0.501 1.119-1.119v-0.5c0.001-0.101 0.041-0.198 0.112-0.269s0.168-0.111 0.269-0.113h23c0.101 0.001 0.195 0.041 0.266 0.113 0.001 0.001 0.002 0.002 0.003 0.003l0 0c0.071 0.071 0.111 0.165 0.113 0.266v0.5c0.001 0.618 0.501 1.118 1.119 1.119h0c0.618-0.001 1.118-0.501 1.119-1.119v-0.5c0-0 0-0.001 0-0.002s0-0.001 0-0.002v0c-0.002-0.693-0.278-1.357-0.769-1.847s-1.154-0.767-1.847-0.769c-0 0-0.001 0-0.002 0s-0.001 0-0.002 0h-23c-0 0-0.001 0-0.002 0s-0.001 0-0.002 0h0z"></path>
</symbol>
<symbol id="icon-calendar" viewBox="0 0 32 32">
<path d="M6.666 4.134c-2.121 0-3.866 1.744-3.866 3.866v18.666c0 2.121 1.744 3.869 3.866 3.869h18.669c2.121 0 3.866-1.748 3.866-3.869v-18.666c0-2.121-1.744-3.866-3.866-3.866zM6.666 6.534h18.669c0.824 0 1.466 0.641 1.466 1.466v18.666c0 0.824-0.641 1.469-1.466 1.469h-18.669c-0.824 0-1.466-0.645-1.466-1.469v-18.666c0-0.824 0.641-1.466 1.466-1.466z"></path>
<path d="M21.334 1.466c-0.663 0-1.2 0.537-1.2 1.2v0 5.334c0 0.663 0.537 1.2 1.2 1.2v0c0.663 0 1.2-0.537 1.2-1.2v0-5.334c0-0.663-0.537-1.2-1.2-1.2v0z"></path>
<path d="M10.666 1.466c-0.663 0-1.2 0.537-1.2 1.2v0 5.334c0 0.663 0.537 1.2 1.2 1.2v0c0.663 0 1.2-0.537 1.2-1.2v0-5.334c0-0.663-0.537-1.2-1.2-1.2v0z"></path>
<path d="M4 12.134c-0.663 0-1.2 0.537-1.2 1.2v0c0 0.663 0.537 1.2 1.2 1.2v0h24c0.663 0 1.2-0.537 1.2-1.2v0c0-0.663-0.537-1.2-1.2-1.2v0z"></path>
</symbol>
<symbol id="icon-camper" viewBox="0 0 46 32">
<path d="M2.608 1.8h12.409c0.105 0 0.203-0.040 0.278-0.112l1.192-1.163c0.346-0.338 0.807-0.524 1.297-0.524h18.817c0.876 0 1.69 0.425 2.176 1.136l2.255 3.3c0.32 0.468 0.349 1.067 0.077 1.564s-0.8 0.805-1.377 0.805h-9.698v0.956h4.967c1.317 0 2.501 0.763 3.018 1.945l2.908 6.65 2.548 0.994c1.36 0.531 2.24 1.797 2.24 3.227v6.158c0 0.918-0.766 1.666-1.708 1.666h-2.964c-0.345 2.039-2.164 3.599-4.35 3.599s-4.005-1.561-4.35-3.599h-16.203c-0.345 2.039-2.164 3.599-4.35 3.599s-4.005-1.561-4.35-3.599h-5.921c-0.837 0-1.518-0.664-1.518-1.481v-22.576c0-1.403 1.17-2.544 2.608-2.544zM36.692 30.594c1.637 0 2.969-1.299 2.969-2.896s-1.332-2.896-2.969-2.896c-1.637 0-2.969 1.299-2.969 2.896s1.332 2.896 2.969 2.896zM30.034 26.995h2.307c0.006-0.035 0.013-0.070 0.020-0.105 0.005-0.024 0.009-0.047 0.014-0.071 0.012-0.055 0.025-0.11 0.039-0.164 0.003-0.011 0.005-0.023 0.009-0.034 0.017-0.066 0.036-0.13 0.057-0.195 0.006-0.019 0.013-0.037 0.019-0.056 0.015-0.045 0.031-0.090 0.047-0.134 0.009-0.024 0.018-0.047 0.028-0.071 0.015-0.039 0.030-0.078 0.047-0.116 0.010-0.025 0.022-0.050 0.033-0.075 0.016-0.037 0.032-0.072 0.050-0.108 0.013-0.025 0.025-0.050 0.038-0.075 0.017-0.034 0.036-0.069 0.054-0.103 0.013-0.025 0.027-0.049 0.041-0.074 0.019-0.034 0.039-0.067 0.059-0.101 0.014-0.024 0.029-0.047 0.043-0.071 0.022-0.034 0.044-0.067 0.066-0.101 0.015-0.022 0.029-0.044 0.044-0.065 0.025-0.035 0.051-0.070 0.077-0.105 0.013-0.018 0.026-0.037 0.040-0.055 0.036-0.046 0.072-0.090 0.109-0.135 0.005-0.007 0.010-0.014 0.016-0.020 0.043-0.051 0.087-0.1 0.132-0.148 0.014-0.015 0.028-0.029 0.043-0.044 0.032-0.033 0.063-0.066 0.096-0.099 0.018-0.018 0.038-0.035 0.056-0.053 0.029-0.028 0.059-0.056 0.090-0.084 0.020-0.018 0.041-0.036 0.062-0.054 0.030-0.026 0.060-0.051 0.090-0.077l0.066-0.052c0.031-0.024 0.062-0.048 0.093-0.071 0.022-0.017 0.045-0.034 0.069-0.050 0.032-0.023 0.064-0.045 0.097-0.068 0.023-0.015 0.046-0.031 0.069-0.046 0.034-0.023 0.069-0.044 0.104-0.065 0.022-0.014 0.045-0.028 0.068-0.041 0.038-0.023 0.077-0.044 0.116-0.065 0.020-0.011 0.040-0.023 0.059-0.033 0.056-0.029 0.112-0.057 0.168-0.084 0.005-0.002 0.009-0.004 0.013-0.006 0.061-0.029 0.123-0.056 0.186-0.082 0.020-0.008 0.041-0.016 0.061-0.024 0.043-0.017 0.086-0.034 0.13-0.050 0.025-0.009 0.050-0.017 0.075-0.026 0.040-0.014 0.080-0.027 0.12-0.039 0.027-0.008 0.054-0.016 0.082-0.024 0.039-0.011 0.078-0.023 0.118-0.033 0.028-0.007 0.056-0.015 0.085-0.021 0.039-0.009 0.078-0.018 0.118-0.026 0.029-0.006 0.058-0.012 0.087-0.018 0.040-0.007 0.081-0.015 0.122-0.021 0.029-0.005 0.057-0.010 0.086-0.014 0.042-0.006 0.085-0.011 0.128-0.016 0.027-0.003 0.055-0.007 0.082-0.009 0.047-0.004 0.095-0.008 0.143-0.011 0.024-0.002 0.047-0.004 0.070-0.005 0.072-0.004 0.144-0.006 0.216-0.006s0.144 0.002 0.216 0.006c0.024 0.001 0.047 0.003 0.070 0.005 0.048 0.003 0.096 0.006 0.143 0.011 0.028 0.002 0.055 0.006 0.082 0.009 0.043 0.005 0.086 0.010 0.128 0.016 0.029 0.004 0.058 0.008 0.087 0.014 0.041 0.006 0.081 0.014 0.122 0.021 0.029 0.006 0.058 0.012 0.087 0.018 0.040 0.008 0.079 0.017 0.118 0.026 0.029 0.007 0.057 0.014 0.085 0.021 0.039 0.010 0.078 0.021 0.118 0.033 0.028 0.008 0.055 0.016 0.082 0.024 0.040 0.012 0.080 0.026 0.12 0.039 0.025 0.009 0.050 0.017 0.075 0.026 0.044 0.016 0.087 0.033 0.13 0.050 0.020 0.008 0.041 0.016 0.061 0.024 0.062 0.026 0.125 0.053 0.186 0.082 0.005 0.002 0.009 0.005 0.013 0.006 0.057 0.027 0.112 0.055 0.168 0.084 0.020 0.011 0.039 0.022 0.059 0.033 0.039 0.021 0.078 0.043 0.116 0.065 0.023 0.014 0.045 0.028 0.068 0.041 0.035 0.021 0.070 0.043 0.104 0.065 0.023 0.015 0.046 0.031 0.069 0.046 0.033 0.023 0.065 0.044 0.097 0.068 0.023 0.016 0.046 0.033 0.069 0.050 0.031 0.024 0.062 0.047 0.093 0.071l0.066 0.052c0.031 0.025 0.061 0.051 0.090 0.077 0.021 0.018 0.041 0.036 0.062 0.054 0.031 0.028 0.060 0.056 0.090 0.084 0.018 0.017 0.037 0.035 0.056 0.053 0.033 0.033 0.065 0.066 0.096 0.099 0.014 0.015 0.029 0.029 0.043 0.044 0.045 0.048 0.089 0.098 0.132 0.148 0.006 0.007 0.011 0.014 0.016 0.020 0.037 0.044 0.073 0.089 0.109 0.135 0.014 0.018 0.027 0.037 0.040 0.055 0.026 0.035 0.052 0.070 0.077 0.105 0.015 0.021 0.029 0.043 0.044 0.065 0.022 0.034 0.044 0.067 0.066 0.101 0.014 0.024 0.029 0.047 0.043 0.071 0.020 0.033 0.040 0.067 0.059 0.101 0.014 0.025 0.028 0.049 0.041 0.074 0.018 0.034 0.037 0.069 0.054 0.103 0.013 0.025 0.025 0.050 0.038 0.075 0.017 0.036 0.033 0.071 0.050 0.108 0.011 0.025 0.023 0.049 0.033 0.075 0.017 0.038 0.032 0.077 0.047 0.116 0.010 0.024 0.019 0.047 0.028 0.071 0.016 0.044 0.032 0.089 0.047 0.134 0.006 0.019 0.013 0.038 0.019 0.056 0.020 0.064 0.039 0.129 0.056 0.195 0.003 0.011 0.006 0.023 0.009 0.034 0.014 0.055 0.027 0.109 0.039 0.164 0.005 0.024 0.009 0.047 0.014 0.071 0.007 0.035 0.014 0.069 0.020 0.105h2.963c0.147 0 0.266-0.116 0.266-0.26v-2.946h-1.124v-1.406h1.124v-1.806c0-0.851-0.523-1.606-1.333-1.922l-2.697-1.052h-10.209v9.392zM30.034 16.197h9.257l-2.598-5.939c-0.29-0.662-0.954-1.090-1.692-1.090h-4.967v7.030zM11.789 30.594c1.637 0 2.969-1.299 2.969-2.896s-1.332-2.896-2.969-2.896c-0.051 0-0.102 0.001-0.153 0.004-1.364 0.067-2.488 1.038-2.756 2.309-0.010 0.047-0.019 0.095-0.027 0.143-0.015 0.096-0.025 0.193-0.030 0.291-0.003 0.049-0.004 0.099-0.004 0.149 0 1.597 1.332 2.896 2.969 2.896zM1.441 22.383h1.124v1.406h-1.124v3.131c0 0.041 0.035 0.075 0.077 0.075h5.92c0.006-0.035 0.013-0.069 0.020-0.104 0.005-0.024 0.009-0.048 0.014-0.072 0.012-0.054 0.024-0.107 0.038-0.16 0.003-0.012 0.006-0.025 0.009-0.038 0.017-0.065 0.036-0.129 0.056-0.193 0.006-0.020 0.013-0.039 0.020-0.058 0.015-0.044 0.030-0.089 0.046-0.132 0.009-0.025 0.019-0.048 0.028-0.072 0.015-0.038 0.031-0.077 0.046-0.114 0.011-0.026 0.022-0.051 0.034-0.076 0.016-0.036 0.032-0.071 0.050-0.106 0.012-0.026 0.025-0.051 0.038-0.076 0.017-0.034 0.035-0.068 0.054-0.102 0.014-0.025 0.028-0.049 0.042-0.074 0.020-0.034 0.039-0.067 0.059-0.1 0.014-0.024 0.029-0.048 0.044-0.071 0.021-0.034 0.043-0.067 0.066-0.1 0.014-0.023 0.029-0.045 0.044-0.066 0.025-0.035 0.051-0.070 0.076-0.104 0.014-0.019 0.028-0.038 0.042-0.057 0.035-0.044 0.070-0.088 0.106-0.132 0.006-0.008 0.012-0.016 0.018-0.023 0.043-0.051 0.087-0.1 0.132-0.148 0.014-0.015 0.029-0.030 0.043-0.045 0.032-0.033 0.063-0.066 0.096-0.098 0.018-0.018 0.037-0.035 0.056-0.053 0.029-0.028 0.059-0.056 0.089-0.083 0.020-0.018 0.041-0.036 0.062-0.055 0.029-0.025 0.059-0.051 0.090-0.075 0.022-0.018 0.044-0.036 0.066-0.053 0.030-0.024 0.061-0.047 0.092-0.071 0.022-0.017 0.046-0.034 0.069-0.050 0.032-0.023 0.064-0.045 0.096-0.067 0.024-0.016 0.047-0.031 0.070-0.047 0.034-0.023 0.069-0.044 0.103-0.065 0.023-0.014 0.046-0.028 0.069-0.042 0.038-0.023 0.077-0.044 0.116-0.065 0.020-0.011 0.040-0.023 0.061-0.033 0.055-0.029 0.11-0.057 0.167-0.083 0.005-0.002 0.009-0.005 0.014-0.007 0.061-0.029 0.123-0.056 0.186-0.082 0.020-0.008 0.041-0.016 0.061-0.024 0.043-0.017 0.086-0.034 0.13-0.050 0.025-0.009 0.050-0.017 0.076-0.026 0.039-0.014 0.079-0.027 0.119-0.039 0.027-0.008 0.055-0.016 0.082-0.024 0.039-0.011 0.078-0.023 0.118-0.033 0.028-0.007 0.056-0.015 0.085-0.021 0.039-0.009 0.078-0.018 0.118-0.026 0.029-0.006 0.058-0.012 0.087-0.018 0.040-0.007 0.081-0.015 0.122-0.021 0.029-0.005 0.057-0.010 0.086-0.014 0.042-0.006 0.085-0.011 0.128-0.016 0.027-0.003 0.055-0.007 0.082-0.009 0.047-0.004 0.095-0.008 0.143-0.011 0.024-0.002 0.047-0.004 0.070-0.005 0.072-0.004 0.144-0.006 0.216-0.006s0.144 0.002 0.216 0.006c0.024 0.001 0.047 0.003 0.070 0.005 0.048 0.003 0.096 0.006 0.143 0.011 0.028 0.002 0.055 0.006 0.082 0.009 0.043 0.005 0.086 0.010 0.128 0.016 0.029 0.004 0.058 0.008 0.086 0.014 0.041 0.006 0.081 0.014 0.122 0.021 0.029 0.006 0.058 0.012 0.087 0.018 0.040 0.008 0.079 0.017 0.118 0.026 0.029 0.007 0.057 0.014 0.085 0.021 0.039 0.010 0.078 0.021 0.118 0.033 0.027 0.008 0.055 0.016 0.082 0.024 0.040 0.012 0.080 0.026 0.119 0.039 0.025 0.009 0.051 0.017 0.076 0.026 0.044 0.016 0.086 0.033 0.13 0.050 0.020 0.008 0.041 0.016 0.061 0.024 0.062 0.026 0.124 0.053 0.186 0.082 0.005 0.002 0.010 0.005 0.014 0.007 0.056 0.026 0.112 0.054 0.167 0.083 0.021 0.011 0.040 0.022 0.060 0.033 0.039 0.021 0.078 0.043 0.116 0.065 0.023 0.014 0.046 0.028 0.069 0.042 0.035 0.021 0.069 0.042 0.103 0.065 0.023 0.015 0.046 0.031 0.070 0.047 0.032 0.022 0.065 0.044 0.096 0.067 0.023 0.016 0.046 0.033 0.069 0.050 0.031 0.024 0.062 0.047 0.092 0.071 0.023 0.017 0.044 0.035 0.066 0.053 0.031 0.025 0.061 0.050 0.090 0.076 0.021 0.018 0.042 0.036 0.062 0.054 0.030 0.028 0.060 0.056 0.090 0.084 0.018 0.017 0.037 0.035 0.056 0.053 0.032 0.032 0.065 0.065 0.096 0.098 0.014 0.015 0.029 0.029 0.043 0.044 0.045 0.048 0.089 0.098 0.132 0.148 0.006 0.007 0.012 0.015 0.017 0.021 0.036 0.044 0.073 0.088 0.107 0.134 0.014 0.018 0.028 0.037 0.042 0.055 0.026 0.035 0.052 0.070 0.077 0.105 0.015 0.021 0.029 0.044 0.044 0.066 0.023 0.033 0.044 0.066 0.066 0.1 0.015 0.024 0.029 0.047 0.044 0.071 0.020 0.033 0.040 0.067 0.059 0.101 0.014 0.025 0.028 0.049 0.041 0.074 0.019 0.034 0.037 0.069 0.055 0.103 0.013 0.025 0.025 0.050 0.037 0.075 0.017 0.036 0.034 0.072 0.050 0.108 0.012 0.025 0.023 0.049 0.033 0.075 0.017 0.038 0.032 0.077 0.047 0.116 0.009 0.024 0.018 0.047 0.028 0.071 0.017 0.045 0.032 0.090 0.047 0.135 0.006 0.019 0.013 0.037 0.019 0.055 0.020 0.064 0.039 0.129 0.057 0.195 0.002 0.010 0.005 0.021 0.007 0.031 0.014 0.056 0.028 0.111 0.040 0.168 0.005 0.023 0.009 0.046 0.013 0.069 0.007 0.035 0.014 0.070 0.021 0.106h12.453v-20.893c0-0.388 0.323-0.703 0.721-0.703h10.419c0.018 0 0.073 0 0.107-0.062s0.004-0.106-0.006-0.12l-2.255-3.3c-0.218-0.319-0.583-0.51-0.977-0.51h-18.817c-0.105 0-0.204 0.040-0.278 0.112l-1.192 1.163c-0.346 0.338-0.807 0.524-1.297 0.524h-12.409c-0.643 0-1.167 0.511-1.167 1.138v18.039z"></path>
<path d="M20.116 7.198h4.558c0.921 0 1.67 0.731 1.67 1.629v15.046c0 0.388-0.323 0.703-0.721 0.703h-6.456c-0.398 0-0.721-0.315-0.721-0.703v-15.046c-0.001-0.899 0.748-1.629 1.669-1.629zM19.887 23.17h5.015v-8.267h-5.015v8.267zM19.887 13.497h5.015v-4.669c0-0.123-0.103-0.223-0.229-0.223h-4.558c-0.126 0-0.229 0.1-0.229 0.223v4.669h0.001zM5.536 7.198h8.814c1.019 0 1.848 0.809 1.848 1.802v4.1c0 0.994-0.829 1.802-1.848 1.802h-8.815c-1.019 0-1.848-0.809-1.848-1.802v-4.1c0.001-0.994 0.83-1.802 1.848-1.802zM5.129 13.1c0 0.218 0.182 0.396 0.406 0.396h8.814c0.224 0 0.406-0.178 0.406-0.396v-4.1c0-0.218-0.182-0.396-0.406-0.396h-8.815c-0.224 0-0.406 0.178-0.406 0.396v4.1h0.001z"></path>
</symbol>
<symbol id="icon-cd" viewBox="0 0 32 32">
<path d="M16 2.8c-7.276 0-13.2 5.924-13.2 13.2s5.924 13.2 13.2 13.2c7.276 0 13.2-5.924 13.2-13.2s-5.924-13.2-13.2-13.2zM16 5.2c5.979 0 10.8 4.821 10.8 10.8s-4.821 10.8-10.8 10.8c-5.979 0-10.8-4.821-10.8-10.8s4.821-10.8 10.8-10.8z"></path>
<path d="M16 7.466c-4.699 0-8.534 3.836-8.534 8.534 0 0.663 0.537 1.2 1.2 1.2v0c0.663 0 1.2-0.537 1.2-1.2v0c0-3.401 2.733-6.134 6.134-6.134 0.663 0 1.2-0.537 1.2-1.2v0c0-0.663-0.537-1.2-1.2-1.2v0z"></path>
<path d="M16 11.466c-2.489 0-4.534 2.045-4.534 4.534s2.045 4.534 4.534 4.534c2.489 0 4.534-2.045 4.534-4.534s-2.045-4.534-4.534-4.534zM16 13.866c1.192 0 2.134 0.942 2.134 2.134s-0.942 2.134-2.134 2.134c-1.192 0-2.134-0.942-2.134-2.134s0.942-2.134 2.134-2.134z"></path>
</symbol>
<symbol id="icon-fully-integrated" viewBox="0 0 46 32">
<path d="M2.608 1.8h12.409c0.105 0 0.203-0.040 0.278-0.112l1.192-1.163c0.346-0.338 0.807-0.524 1.297-0.524h18.817c0.876 0 1.69 0.425 2.176 1.136l2.255 3.3c0.32 0.468 0.349 1.067 0.077 1.564s-0.8 0.805-1.377 0.805h-9.698v0.956h4.967c1.317 0 2.501 0.763 3.018 1.945l2.908 6.65 2.548 0.994c1.36 0.531 2.24 1.797 2.24 3.227v6.158c0 0.918-0.766 1.666-1.708 1.666h-2.964c-0.345 2.039-2.164 3.599-4.35 3.599s-4.005-1.561-4.35-3.599h-16.203c-0.345 2.039-2.164 3.599-4.35 3.599s-4.005-1.561-4.35-3.599h-5.921c-0.837 0-1.518-0.664-1.518-1.481v-22.576c0-1.403 1.17-2.544 2.608-2.544zM36.692 30.594c1.637 0 2.969-1.299 2.969-2.896s-1.332-2.896-2.969-2.896c-1.637 0-2.969 1.299-2.969 2.896s1.332 2.896 2.969 2.896zM30.034 26.995h2.307c0.006-0.035 0.013-0.070 0.020-0.105 0.005-0.024 0.009-0.047 0.014-0.071 0.012-0.055 0.025-0.11 0.039-0.164 0.003-0.011 0.005-0.023 0.009-0.034 0.017-0.066 0.036-0.13 0.057-0.195 0.006-0.019 0.013-0.037 0.019-0.056 0.015-0.045 0.031-0.090 0.047-0.134 0.009-0.024 0.018-0.047 0.028-0.071 0.015-0.039 0.030-0.078 0.047-0.116 0.010-0.025 0.022-0.050 0.033-0.075 0.016-0.037 0.032-0.072 0.050-0.108 0.013-0.025 0.025-0.050 0.038-0.075 0.017-0.034 0.036-0.069 0.054-0.103 0.013-0.025 0.027-0.049 0.041-0.074 0.019-0.034 0.039-0.067 0.059-0.101 0.014-0.024 0.029-0.047 0.043-0.071 0.022-0.034 0.044-0.067 0.066-0.101 0.015-0.022 0.029-0.044 0.044-0.065 0.025-0.035 0.051-0.070 0.077-0.105 0.013-0.018 0.026-0.037 0.040-0.055 0.036-0.046 0.072-0.090 0.109-0.135 0.005-0.007 0.010-0.014 0.016-0.020 0.043-0.051 0.087-0.1 0.132-0.148 0.014-0.015 0.028-0.029 0.043-0.044 0.032-0.033 0.063-0.066 0.096-0.099 0.018-0.018 0.038-0.035 0.056-0.053 0.029-0.028 0.059-0.056 0.090-0.084 0.020-0.018 0.041-0.036 0.062-0.054 0.030-0.026 0.060-0.051 0.090-0.077l0.066-0.052c0.031-0.024 0.062-0.048 0.093-0.071 0.022-0.017 0.045-0.034 0.069-0.050 0.032-0.023 0.064-0.045 0.097-0.068 0.023-0.015 0.046-0.031 0.069-0.046 0.034-0.023 0.069-0.044 0.104-0.065 0.022-0.014 0.045-0.028 0.068-0.041 0.038-0.023 0.077-0.044 0.116-0.065 0.020-0.011 0.040-0.023 0.059-0.033 0.056-0.029 0.112-0.057 0.168-0.084 0.005-0.002 0.009-0.004 0.013-0.006 0.061-0.029 0.123-0.056 0.186-0.082 0.020-0.008 0.041-0.016 0.061-0.024 0.043-0.017 0.086-0.034 0.13-0.050 0.025-0.009 0.050-0.017 0.075-0.026 0.040-0.014 0.080-0.027 0.12-0.039 0.027-0.008 0.054-0.016 0.082-0.024 0.039-0.011 0.078-0.023 0.118-0.033 0.028-0.007 0.056-0.015 0.085-0.021 0.039-0.009 0.078-0.018 0.118-0.026 0.029-0.006 0.058-0.012 0.087-0.018 0.040-0.007 0.081-0.015 0.122-0.021 0.029-0.005 0.057-0.010 0.086-0.014 0.042-0.006 0.085-0.011 0.128-0.016 0.027-0.003 0.055-0.007 0.082-0.009 0.047-0.004 0.095-0.008 0.143-0.011 0.024-0.002 0.047-0.004 0.070-0.005 0.072-0.004 0.144-0.006 0.216-0.006s0.144 0.002 0.216 0.006c0.024 0.001 0.047 0.003 0.070 0.005 0.048 0.003 0.096 0.006 0.143 0.011 0.028 0.002 0.055 0.006 0.082 0.009 0.043 0.005 0.086 0.010 0.128 0.016 0.029 0.004 0.058 0.008 0.087 0.014 0.041 0.006 0.081 0.014 0.122 0.021 0.029 0.006 0.058 0.012 0.087 0.018 0.040 0.008 0.079 0.017 0.118 0.026 0.029 0.007 0.057 0.014 0.085 0.021 0.039 0.010 0.078 0.021 0.118 0.033 0.028 0.008 0.055 0.016 0.082 0.024 0.040 0.012 0.080 0.026 0.12 0.039 0.025 0.009 0.050 0.017 0.075 0.026 0.044 0.016 0.087 0.033 0.13 0.050 0.020 0.008 0.041 0.016 0.061 0.024 0.062 0.026 0.125 0.053 0.186 0.082 0.005 0.002 0.009 0.005 0.013 0.006 0.057 0.027 0.112 0.055 0.168 0.084 0.020 0.011 0.039 0.022 0.059 0.033 0.039 0.021 0.078 0.043 0.116 0.065 0.023 0.014 0.045 0.028 0.068 0.041 0.035 0.021 0.070 0.043 0.104 0.065 0.023 0.015 0.046 0.031 0.069 0.046 0.033 0.023 0.065 0.044 0.097 0.068 0.023 0.016 0.046 0.033 0.069 0.050 0.031 0.024 0.062 0.047 0.093 0.071l0.066 0.052c0.031 0.025 0.061 0.051 0.090 0.077 0.021 0.018 0.041 0.036 0.062 0.054 0.031 0.028 0.060 0.056 0.090 0.084 0.018 0.017 0.037 0.035 0.056 0.053 0.033 0.033 0.065 0.066 0.096 0.099 0.014 0.015 0.029 0.029 0.043 0.044 0.045 0.048 0.089 0.098 0.132 0.148 0.006 0.007 0.011 0.014 0.016 0.020 0.037 0.044 0.073 0.089 0.109 0.135 0.014 0.018 0.027 0.037 0.040 0.055 0.026 0.035 0.052 0.070 0.077 0.105 0.015 0.021 0.029 0.043 0.044 0.065 0.022 0.034 0.044 0.067 0.066 0.101 0.014 0.024 0.029 0.047 0.043 0.071 0.020 0.033 0.040 0.067 0.059 0.101 0.014 0.025 0.028 0.049 0.041 0.074 0.018 0.034 0.037 0.069 0.054 0.103 0.013 0.025 0.025 0.050 0.038 0.075 0.017 0.036 0.033 0.071 0.050 0.108 0.011 0.025 0.023 0.049 0.033 0.075 0.017 0.038 0.032 0.077 0.047 0.116 0.010 0.024 0.019 0.047 0.028 0.071 0.016 0.044 0.032 0.089 0.047 0.134 0.006 0.019 0.013 0.038 0.019 0.056 0.020 0.064 0.039 0.129 0.056 0.195 0.003 0.011 0.006 0.023 0.009 0.034 0.014 0.055 0.027 0.109 0.039 0.164 0.005 0.024 0.009 0.047 0.014 0.071 0.007 0.035 0.014 0.069 0.020 0.105h2.963c0.147 0 0.266-0.116 0.266-0.26v-2.946h-1.124v-1.406h1.124v-1.806c0-0.851-0.523-1.606-1.333-1.922l-2.697-1.052h-10.209v9.392zM30.034 16.197h9.257l-2.598-5.939c-0.29-0.662-0.954-1.090-1.692-1.090h-4.967v7.030zM11.789 30.594c1.637 0 2.969-1.299 2.969-2.896s-1.332-2.896-2.969-2.896c-0.051 0-0.102 0.001-0.153 0.004-1.364 0.067-2.488 1.038-2.756 2.309-0.010 0.047-0.019 0.095-0.027 0.143-0.015 0.096-0.025 0.193-0.030 0.291-0.003 0.049-0.004 0.099-0.004 0.149 0 1.597 1.332 2.896 2.969 2.896zM1.441 22.383h1.124v1.406h-1.124v3.131c0 0.041 0.035 0.075 0.077 0.075h5.92c0.006-0.035 0.013-0.069 0.020-0.104 0.005-0.024 0.009-0.048 0.014-0.072 0.012-0.054 0.024-0.107 0.038-0.16 0.003-0.012 0.006-0.025 0.009-0.038 0.017-0.065 0.036-0.129 0.056-0.193 0.006-0.020 0.013-0.039 0.020-0.058 0.015-0.044 0.030-0.089 0.046-0.132 0.009-0.025 0.019-0.048 0.028-0.072 0.015-0.038 0.031-0.077 0.046-0.114 0.011-0.026 0.022-0.051 0.034-0.076 0.016-0.036 0.032-0.071 0.050-0.106 0.012-0.026 0.025-0.051 0.038-0.076 0.017-0.034 0.035-0.068 0.054-0.102 0.014-0.025 0.028-0.049 0.042-0.074 0.020-0.034 0.039-0.067 0.059-0.1 0.014-0.024 0.029-0.048 0.044-0.071 0.021-0.034 0.043-0.067 0.066-0.1 0.014-0.023 0.029-0.045 0.044-0.066 0.025-0.035 0.051-0.070 0.076-0.104 0.014-0.019 0.028-0.038 0.042-0.057 0.035-0.044 0.070-0.088 0.106-0.132 0.006-0.008 0.012-0.016 0.018-0.023 0.043-0.051 0.087-0.1 0.132-0.148 0.014-0.015 0.029-0.030 0.043-0.045 0.032-0.033 0.063-0.066 0.096-0.098 0.018-0.018 0.037-0.035 0.056-0.053 0.029-0.028 0.059-0.056 0.089-0.083 0.020-0.018 0.041-0.036 0.062-0.055 0.029-0.025 0.059-0.051 0.090-0.075 0.022-0.018 0.044-0.036 0.066-0.053 0.030-0.024 0.061-0.047 0.092-0.071 0.022-0.017 0.046-0.034 0.069-0.050 0.032-0.023 0.064-0.045 0.096-0.067 0.024-0.016 0.047-0.031 0.070-0.047 0.034-0.023 0.069-0.044 0.103-0.065 0.023-0.014 0.046-0.028 0.069-0.042 0.038-0.023 0.077-0.044 0.116-0.065 0.020-0.011 0.040-0.023 0.061-0.033 0.055-0.029 0.11-0.057 0.167-0.083 0.005-0.002 0.009-0.005 0.014-0.007 0.061-0.029 0.123-0.056 0.186-0.082 0.020-0.008 0.041-0.016 0.061-0.024 0.043-0.017 0.086-0.034 0.13-0.050 0.025-0.009 0.050-0.017 0.076-0.026 0.039-0.014 0.079-0.027 0.119-0.039 0.027-0.008 0.055-0.016 0.082-0.024 0.039-0.011 0.078-0.023 0.118-0.033 0.028-0.007 0.056-0.015 0.085-0.021 0.039-0.009 0.078-0.018 0.118-0.026 0.029-0.006 0.058-0.012 0.087-0.018 0.040-0.007 0.081-0.015 0.122-0.021 0.029-0.005 0.057-0.010 0.086-0.014 0.042-0.006 0.085-0.011 0.128-0.016 0.027-0.003 0.055-0.007 0.082-0.009 0.047-0.004 0.095-0.008 0.143-0.011 0.024-0.002 0.047-0.004 0.070-0.005 0.072-0.004 0.144-0.006 0.216-0.006s0.144 0.002 0.216 0.006c0.024 0.001 0.047 0.003 0.070 0.005 0.048 0.003 0.096 0.006 0.143 0.011 0.028 0.002 0.055 0.006 0.082 0.009 0.043 0.005 0.086 0.010 0.128 0.016 0.029 0.004 0.058 0.008 0.086 0.014 0.041 0.006 0.081 0.014 0.122 0.021 0.029 0.006 0.058 0.012 0.087 0.018 0.040 0.008 0.079 0.017 0.118 0.026 0.029 0.007 0.057 0.014 0.085 0.021 0.039 0.010 0.078 0.021 0.118 0.033 0.027 0.008 0.055 0.016 0.082 0.024 0.040 0.012 0.080 0.026 0.119 0.039 0.025 0.009 0.051 0.017 0.076 0.026 0.044 0.016 0.086 0.033 0.13 0.050 0.020 0.008 0.041 0.016 0.061 0.024 0.062 0.026 0.124 0.053 0.186 0.082 0.005 0.002 0.010 0.005 0.014 0.007 0.056 0.026 0.112 0.054 0.167 0.083 0.021 0.011 0.040 0.022 0.060 0.033 0.039 0.021 0.078 0.043 0.116 0.065 0.023 0.014 0.046 0.028 0.069 0.042 0.035 0.021 0.069 0.042 0.103 0.065 0.023 0.015 0.046 0.031 0.070 0.047 0.032 0.022 0.065 0.044 0.096 0.067 0.023 0.016 0.046 0.033 0.069 0.050 0.031 0.024 0.062 0.047 0.092 0.071 0.023 0.017 0.044 0.035 0.066 0.053 0.031 0.025 0.061 0.050 0.090 0.076 0.021 0.018 0.042 0.036 0.062 0.054 0.030 0.028 0.060 0.056 0.090 0.084 0.018 0.017 0.037 0.035 0.056 0.053 0.032 0.032 0.065 0.065 0.096 0.098 0.014 0.015 0.029 0.029 0.043 0.044 0.045 0.048 0.089 0.098 0.132 0.148 0.006 0.007 0.012 0.015 0.017 0.021 0.036 0.044 0.073 0.088 0.107 0.134 0.014 0.018 0.028 0.037 0.042 0.055 0.026 0.035 0.052 0.070 0.077 0.105 0.015 0.021 0.029 0.044 0.044 0.066 0.023 0.033 0.044 0.066 0.066 0.1 0.015 0.024 0.029 0.047 0.044 0.071 0.020 0.033 0.040 0.067 0.059 0.101 0.014 0.025 0.028 0.049 0.041 0.074 0.019 0.034 0.037 0.069 0.055 0.103 0.013 0.025 0.025 0.050 0.037 0.075 0.017 0.036 0.034 0.072 0.050 0.108 0.012 0.025 0.023 0.049 0.033 0.075 0.017 0.038 0.032 0.077 0.047 0.116 0.009 0.024 0.018 0.047 0.028 0.071 0.017 0.045 0.032 0.090 0.047 0.135 0.006 0.019 0.013 0.037 0.019 0.055 0.020 0.064 0.039 0.129 0.057 0.195 0.002 0.010 0.005 0.021 0.007 0.031 0.014 0.056 0.028 0.111 0.040 0.168 0.005 0.023 0.009 0.046 0.013 0.069 0.007 0.035 0.014 0.070 0.021 0.106h12.453v-20.893c0-0.388 0.323-0.703 0.721-0.703h10.419c0.018 0 0.073 0 0.107-0.062s0.004-0.106-0.006-0.12l-2.255-3.3c-0.218-0.319-0.583-0.51-0.977-0.51h-18.817c-0.105 0-0.204 0.040-0.278 0.112l-1.192 1.163c-0.346 0.338-0.807 0.524-1.297 0.524h-12.409c-0.643 0-1.167 0.511-1.167 1.138v18.039z"></path>
<path d="M20.116 7.198h4.558c0.921 0 1.67 0.731 1.67 1.629v15.046c0 0.388-0.323 0.703-0.721 0.703h-6.456c-0.398 0-0.721-0.315-0.721-0.703v-15.046c-0.001-0.899 0.748-1.629 1.669-1.629zM19.887 23.17h5.015v-8.267h-5.015v8.267zM19.887 13.497h5.015v-4.669c0-0.123-0.103-0.223-0.229-0.223h-4.558c-0.126 0-0.229 0.1-0.229 0.223l0.001 4.669z"></path>
</symbol>
<symbol id="icon-heart" viewBox="0 0 32 32">
<path d="M22.599 2.464c-1.165 0-2.317 0.231-3.393 0.677s-2.054 1.098-2.878 1.922l-0.328 0.328-0.328-0.328c-1.663-1.663-3.919-2.596-6.271-2.596s-4.608 0.934-6.271 2.596c-1.663 1.663-2.599 3.919-2.599 6.271s0.936 4.608 2.599 6.271l1.411 1.414 10.375 10.372c0.277 0.277 0.66 0.448 1.083 0.448s0.806-0.171 1.083-0.448l11.786-11.786c0.824-0.823 1.479-1.801 1.924-2.878s0.674-2.229 0.674-3.393-0.229-2.317-0.674-3.393c-0.446-1.076-1.101-2.054-1.924-2.878s-1.8-1.476-2.875-1.922c-1.076-0.446-2.231-0.677-3.396-0.677zM9.401 5.531c1.539 0 3.013 0.612 4.102 1.701l1.414 1.411c0.277 0.277 0.66 0.448 1.083 0.448s0.806-0.171 1.083-0.448l1.414-1.411c0.539-0.539 1.179-0.966 1.883-1.258 0-0 0-0.001 0-0.001s0-0.001 0-0.001v0c0.704-0.292 1.457-0.44 2.219-0.44s1.517 0.151 2.221 0.443v-0.003c0.704 0.292 1.344 0.722 1.883 1.26s0.966 1.176 1.258 1.88c0.292 0.704 0.443 1.459 0.443 2.221s-0.151 1.515-0.443 2.219c0 0 0 0.001 0 0.001s0 0.001 0 0.001v-0c-0.292 0.704-0.719 1.341-1.258 1.88l-10.703 10.703-10.703-10.703c-1.088-1.088-1.698-2.562-1.698-4.102s0.609-3.013 1.698-4.102c1.088-1.088 2.565-1.701 4.104-1.701z"></path>
</symbol>
<symbol id="icon-heart-pressed" viewBox="0 0 32 32">
<path d="M27.787 6.147c-0.681-0.681-1.49-1.222-2.379-1.591s-1.844-0.559-2.807-0.559-1.917 0.19-2.807 0.559c-0.89 0.369-1.699 0.909-2.38 1.591l-1.413 1.413-1.413-1.413c-1.376-1.376-3.241-2.148-5.187-2.148s-3.811 0.773-5.187 2.148c-1.376 1.376-2.148 3.241-2.148 5.187s0.773 3.811 2.148 5.187l11.787 11.787 11.787-11.787c0.681-0.681 1.222-1.49 1.591-2.38s0.559-1.844 0.559-2.807-0.19-1.917-0.559-2.807c-0.369-0.89-0.909-1.699-1.591-2.38z"></path>
<path d="M22.599 2.464c-1.165 0-2.317 0.231-3.393 0.677s-2.054 1.098-2.878 1.922l-0.328 0.328-0.328-0.328c-1.663-1.663-3.919-2.596-6.271-2.596s-4.608 0.934-6.271 2.596c-1.663 1.663-2.599 3.919-2.599 6.271s0.936 4.608 2.599 6.271l1.411 1.414 10.375 10.372c0.277 0.277 0.66 0.448 1.083 0.448s0.806-0.171 1.083-0.448l11.786-11.786c0.824-0.823 1.479-1.801 1.924-2.878s0.674-2.229 0.674-3.393-0.229-2.317-0.674-3.393c-0.446-1.076-1.101-2.054-1.924-2.878s-1.8-1.476-2.875-1.922c-1.076-0.446-2.231-0.677-3.396-0.677zM9.401 5.531c1.539 0 3.013 0.612 4.102 1.701l1.414 1.411c0.277 0.277 0.66 0.448 1.083 0.448s0.806-0.171 1.083-0.448l1.414-1.411c0.539-0.539 1.179-0.966 1.883-1.258 0-0 0-0.001 0-0.001s0-0.001 0-0.001v0c0.704-0.292 1.457-0.44 2.219-0.44s1.517 0.151 2.221 0.443v-0.003c0.704 0.292 1.344 0.722 1.883 1.26s0.966 1.176 1.258 1.88c0.292 0.704 0.443 1.459 0.443 2.221s-0.151 1.515-0.443 2.219c0 0 0 0.001 0 0.001s0 0.001 0 0.001v-0c-0.292 0.704-0.719 1.341-1.258 1.88l-10.703 10.703-10.703-10.703c-1.088-1.088-1.698-2.562-1.698-4.102s0.609-3.013 1.698-4.102c1.088-1.088 2.565-1.701 4.104-1.701z"></path>
</symbol>
<symbol id="icon-kitchen" viewBox="0 0 32 32">
<path d="M25.806 2.897c-0.139-0.061-0.302-0.097-0.472-0.097-0.321 0-0.613 0.126-0.828 0.332l0-0c-6.643 6.337-7.072 11.917-7.041 16.875 0.004 0.66 0.539 1.194 1.2 1.194h5.469v1.625c-0.036-0.009-0.082-0.018-0.128-0.024l-0.006-0.001c-0.663 0-1.2 0.537-1.2 1.2v0 4c0 0.663 0.537 1.2 1.2 1.2h1.334c0.663-0 1.2-0.537 1.2-1.2v0-24c-0-0.492-0.296-0.915-0.72-1.1l-0.008-0.003zM6.666 4.134c-0.663 0-1.2 0.537-1.2 1.2v0 4c0 1.379 0.55 2.7 1.525 3.675 0.657 0.657 1.592 0.796 2.475 1.028v13.962c0 0.663 0.537 1.2 1.2 1.2v0c0.663 0 1.2-0.537 1.2-1.2v0-13.963c0.884-0.232 1.821-0.371 2.478-1.028 0.975-0.975 1.522-2.296 1.522-3.675v-4c0-0.663-0.537-1.2-1.2-1.2v0c-0.663 0-1.2 0.537-1.2 1.2v0 4c0 0.743-0.293 1.453-0.819 1.978-0.207 0.207-0.526 0.193-0.781 0.325v-6.303c0-0.663-0.537-1.2-1.2-1.2v0c-0.663 0-1.2 0.537-1.2 1.2v0 6.3c-0.255-0.131-0.572-0.115-0.778-0.322-0.525-0.525-0.822-1.235-0.822-1.978v-4c0-0.663-0.537-1.2-1.2-1.2v0zM24.134 7.219v11.581h-4.134c0.029-3.716 0.559-7.301 4.134-11.581z"></path>
</symbol>
<symbol id="icon-people" viewBox="0 0 32 32">
<path d="M9.067 24.133h-4.4c-0.267 0-0.4-0.133-0.533-0.267s-0.267-0.4-0.133-0.667c0.8-2.267 2.8-3.6 5.067-3.6 2.8 0 5.067-2.4 5.067-5.2s-2.267-5.467-5.067-5.467c-2.8 0-5.067 2.4-5.067 5.333 0 1.333 0.533 2.667 1.333 3.6-1.733 0.933-3.067 2.4-3.867 4.4-0.267 0.933-0.133 2.133 0.533 3.067s1.6 1.467 2.667 1.467h4.4c0.8 0 1.333-0.533 1.333-1.333s-0.533-1.333-1.333-1.333zM6.667 14.267c0-1.467 1.067-2.533 2.4-2.533s2.4 1.2 2.4 2.533c0 1.467-1.067 2.533-2.4 2.533s-2.4-1.2-2.4-2.533z"></path>
<path d="M30.533 21.467c-0.933-2.533-2.8-4.4-4.933-5.467 1.2-1.067 1.867-2.667 1.867-4.533 0-3.467-2.667-6.267-5.867-6.267s-5.867 2.8-5.867 6.267c0 1.733 0.667 3.333 1.867 4.533-2.133 1.067-4 2.933-4.933 5.467-0.667 1.2-0.4 2.533 0.267 3.6s1.867 1.6 3.067 1.6h11.067c1.2 0 2.4-0.667 3.067-1.6 0.8-1.067 0.933-2.4 0.4-3.6zM18.267 11.6c0-2 1.467-3.6 3.2-3.6s3.2 1.6 3.2 3.6-1.467 3.6-3.2 3.6c-1.733 0-3.2-1.733-3.2-3.6zM27.867 23.6c-0.133 0.133-0.4 0.533-0.8 0.533h-11.067c-0.533 0-0.8-0.4-0.8-0.533-0.133-0.133-0.4-0.667-0.133-1.2 1.067-2.8 3.733-4.667 6.533-4.667s5.467 1.867 6.533 4.667c0.133 0.533-0.133 1.067-0.267 1.2z"></path>
</symbol>
<symbol id="icon-petrol" viewBox="0 0 32 32">
<path d="M26.36 9.64l0.013-0.013-4.96-4.96-1.413 1.413 2.813 2.813c-1.253 0.48-2.147 1.68-2.147 3.107 0 0.438 0.086 0.871 0.254 1.276s0.413 0.772 0.723 1.081c0.625 0.625 1.473 0.976 2.357 0.976 0.48 0 0.92-0.107 1.333-0.28v9.613c0 0.354-0.14 0.693-0.391 0.943s-0.589 0.391-0.943 0.391c-0.354 0-0.693-0.14-0.943-0.391s-0.391-0.589-0.391-0.943v-6c0-0.707-0.281-1.386-0.781-1.886s-1.178-0.781-1.886-0.781h-1.333v-9.333c0-0.707-0.281-1.386-0.781-1.886s-1.178-0.781-1.886-0.781h-8c-0.707 0-1.386 0.281-1.886 0.781s-0.781 1.178-0.781 1.886v21.333h13.333v-10h2v6.667c0 0.884 0.351 1.732 0.976 2.357s1.473 0.976 2.357 0.976c0.438 0 0.871-0.086 1.276-0.254s0.772-0.413 1.081-0.723c0.309-0.309 0.555-0.677 0.723-1.081s0.254-0.838 0.254-1.276v-12.667c0-0.92-0.373-1.76-0.973-2.36zM16 18v7.333h-8v-9.333h8v2zM16 13.333h-8v-6.667h8v6.667zM24 13.333c-0.354 0-0.693-0.14-0.943-0.39s-0.391-0.589-0.391-0.943 0.14-0.693 0.391-0.943c0.25-0.25 0.589-0.39 0.943-0.39s0.693 0.14 0.943 0.39c0.25 0.25 0.391 0.589 0.391 0.943s-0.14 0.693-0.391 0.943c-0.25 0.25-0.589 0.39-0.943 0.39z"></path>
</symbol>
<symbol id="icon-radio" viewBox="0 0 32 32">
<path d="M13.334 6.959c-2.514 0-4.42-0.005-5.991 0.206s-2.872 0.684-3.85 1.663c-0.979 0.978-1.451 2.277-1.663 3.847s-0.206 3.477-0.206 5.991c0 2.514-0.005 4.42 0.206 5.991s0.684 2.872 1.663 3.85c0.978 0.979 2.28 1.451 3.85 1.663s3.477 0.203 5.991 0.203h5.331c2.514 0 4.42 0.008 5.991-0.203s2.872-0.684 3.85-1.663c0.979-0.978 1.451-2.28 1.663-3.85s0.203-3.477 0.203-5.991c0-2.514 0.008-4.42-0.203-5.991s-0.684-2.869-1.663-3.847c-0.978-0.979-2.28-1.451-3.85-1.662s-3.477-0.206-5.991-0.206zM13.334 9.041h5.331c2.514 0 4.381 0.005 5.716 0.184s2.070 0.488 2.653 1.072c0.584 0.583 0.892 1.322 1.072 2.656s0.188 3.198 0.188 5.712c0 2.514-0.008 4.381-0.188 5.716s-0.488 2.070-1.072 2.653c-0.583 0.584-1.319 0.892-2.653 1.072s-3.202 0.188-5.716 0.188h-5.331c-2.514 0-4.381-0.008-5.716-0.188s-2.070-0.488-2.653-1.072c-0.584-0.583-0.892-1.319-1.072-2.653s-0.188-3.202-0.188-5.716c0-2.514 0.008-4.378 0.188-5.713s0.488-2.073 1.072-2.656c0.583-0.584 1.319-0.892 2.653-1.072s3.202-0.184 5.716-0.184z"></path>
<path d="M9.334 10.959c-0.983 0-1.927 0.393-2.622 1.088s-1.087 1.636-1.087 2.619c0 0.983 0.393 1.927 1.088 2.622s1.639 1.084 2.622 1.084h13.331c0.983 0 1.927-0.39 2.622-1.084s1.084-1.639 1.084-2.622c0-0.983-0.389-1.924-1.084-2.619s-1.639-1.088-2.622-1.088zM9.334 13.041h13.331c0.432 0 0.845 0.17 1.15 0.475s0.478 0.718 0.478 1.15-0.173 0.845-0.478 1.15c-0.305 0.305-0.718 0.478-1.15 0.478h-13.331c-0.431 0-0.845-0.174-1.15-0.478-0.305-0.305-0.478-0.718-0.478-1.15s0.173-0.845 0.478-1.15c0.305-0.305 0.718-0.475 1.15-0.475zM10 19.628c-0.806 0-1.58 0.318-2.15 0.887s-0.891 1.344-0.891 2.15c0 0.806 0.321 1.58 0.891 2.15s1.344 0.891 2.15 0.891 1.58-0.321 2.15-0.891c0.57-0.57 0.891-1.344 0.891-2.15s-0.321-1.58-0.891-2.15-1.344-0.887-2.15-0.887zM10 21.706c0.255 0 0.498 0.101 0.678 0.281s0.281 0.423 0.281 0.678c0 0.255-0.101 0.501-0.281 0.681s-0.423 0.281-0.678 0.281-0.498-0.101-0.678-0.281c-0.18-0.18-0.281-0.426-0.281-0.681s0.101-0.498 0.281-0.678 0.423-0.281 0.678-0.281z"></path>
<path d="M19.556 1.725l-11.331 5.334c-0.357 0.17-0.599 0.528-0.599 0.942 0 0.161 0.036 0.313 0.102 0.449l-0.003-0.006c0.17 0.355 0.527 0.596 0.941 0.596 0.161 0 0.314-0.037 0.45-0.102l-0.006 0.003 11.334-5.334c0.355-0.171 0.595-0.527 0.595-0.94 0-0.16-0.036-0.312-0.101-0.448l0.003 0.006c-0.17-0.357-0.528-0.599-0.942-0.599-0.161 0-0.313 0.036-0.449 0.102l0.006-0.003zM20 14.294c-0 0-0 0-0.001 0-0.574 0-1.040 0.466-1.040 1.040 0 0 0 0 0 0.001v-0 2c0.001 0.573 0.466 1.038 1.040 1.038 0 0 0 0 0.001 0h-0c0 0 0 0 0.001 0 0.573 0 1.039-0.464 1.040-1.037v-2c0-0 0-0 0-0.001 0-0.574-0.466-1.040-1.040-1.040-0 0-0 0-0.001 0h0zM17.334 21.628c-0 0-0 0-0.001 0-0.573 0-1.039 0.464-1.040 1.037v0c0 0 0 0 0 0.001 0 0.574 0.466 1.040 1.040 1.040 0 0 0 0 0.001 0h6.666c0 0 0 0 0.001 0 0.574 0 1.040-0.466 1.040-1.040 0-0 0-0 0-0.001v0c-0.001-0.573-0.466-1.038-1.040-1.038-0 0-0 0-0.001 0h0z"></path>
</symbol>
<symbol id="icon-route" viewBox="0 0 32 32">
<path d="M6.667 4c-1.473 0-2.667 1.194-2.667 2.667s1.194 2.667 2.667 2.667c1.473 0 2.667-1.194 2.667-2.667s-1.194-2.667-2.667-2.667zM1.333 6.667c0-2.946 2.388-5.333 5.333-5.333s5.333 2.388 5.333 5.333c0 2.946-2.388 5.333-5.333 5.333s-5.333-2.388-5.333-5.333z"></path>
<path d="M25.333 22.667c-1.473 0-2.667 1.194-2.667 2.667s1.194 2.667 2.667 2.667c1.473 0 2.667-1.194 2.667-2.667s-1.194-2.667-2.667-2.667zM20 25.333c0-2.945 2.388-5.333 5.333-5.333s5.333 2.388 5.333 5.333c0 2.946-2.388 5.333-5.333 5.333s-5.333-2.388-5.333-5.333z"></path>
<path d="M13.333 6.667c0-0.736 0.597-1.333 1.333-1.333h8.4c4.13 0 5.62 5.404 1.987 7.429l-15.473 8.804c-1.16 0.644-0.782 2.434 0.686 2.434h7.067c0.736 0 1.333 0.597 1.333 1.333s-0.597 1.333-1.333 1.333h-7.067c-4.13 0-5.619-5.404-1.987-7.429l15.473-8.804c1.16-0.644 0.782-2.434-0.686-2.434h-8.4c-0.736 0-1.333-0.597-1.333-1.333z"></path>
</symbol>
<symbol id="icon-shower" viewBox="0 0 32 32">
<path d="M4.627 4.627c-0.181 0.181-0.293 0.431-0.293 0.707s0.112 0.526 0.293 0.707l2.813 2.813c-0.99 1.304-1.65 2.833-1.658 4.488-0.008 1.658 0.637 3.197 1.617 4.512l-1.439 1.439c-0.181 0.181-0.293 0.431-0.293 0.707s0.112 0.526 0.293 0.707v0c0.181 0.181 0.431 0.293 0.707 0.293s0.526-0.112 0.707-0.293l1.994-1.992c-0.001 0.002 0-0 0.002-0.002l0.002-0.004 9.344-9.342c-0.002 0.004-0.001 0.003-0.001 0.002l0.003-0.006 1.99-1.99c0.181-0.181 0.293-0.431 0.293-0.707s-0.112-0.526-0.293-0.707v0c-0.181-0.181-0.431-0.293-0.707-0.293s-0.526 0.112-0.707 0.293l-1.44 1.439c-1.315-0.98-2.854-1.626-4.512-1.617-1.656 0.008-3.184 0.668-4.488 1.658l-2.813-2.813c-0.181-0.181-0.431-0.293-0.707-0.293s-0.526 0.112-0.707 0.293v0zM13.352 7.781c1.125-0.006 2.164 0.417 3.086 1.033l-7.623 7.623c-0.616-0.922-1.039-1.961-1.033-3.086 0.007-1.476 0.595-2.888 1.639-3.932s2.456-1.631 3.932-1.639zM21.334 12.334c-0.552 0-1 0.448-1 1v0 0.014c0 0.552 0.448 1 1 1v0c0.552 0 1-0.448 1-1v0-0.014c0-0.552-0.448-1-1-1v0zM26.666 13.666c-0.552 0-1 0.448-1 1v0 0.014c0 0.552 0.448 1 1 1v0c0.552 0 1-0.448 1-1v0-0.014c0-0.552-0.448-1-1-1v0zM17.334 16.334c-0.552 0-1 0.448-1 1v0 0.014c0 0.552 0.448 1 1 1v0c0.552 0 1-0.448 1-1v0-0.014c0-0.552-0.448-1-1-1v0zM22.666 17.666c-0.552 0-1 0.448-1 1v0 0.014c0 0.552 0.448 1 1 1v0c0.552 0 1-0.448 1-1v0-0.014c0-0.552-0.448-1-1-1v0zM13.334 20.334c-0.552 0-1 0.448-1 1v0 0.014c0 0.552 0.448 1 1 1v0c0.552 0 1-0.448 1-1v0-0.014c0-0.552-0.448-1-1-1v0zM18.666 21.666c-0.552 0-1 0.448-1 1v0 0.014c0 0.552 0.448 1 1 1v0c0.552 0 1-0.448 1-1v0-0.014c0-0.552-0.448-1-1-1v0zM14.666 25.666c-0.552 0-1 0.448-1 1v0 0.014c0 0.552 0.448 1 1 1v0c0.552 0 1-0.448 1-1v0-0.014c0-0.552-0.448-1-1-1v0z"></path>
</symbol>
<symbol id="icon-tv" viewBox="0 0 32 32">
<path d="M8 7.1c-2.699 0-4.9 2.201-4.9 4.9v10c0 2.699 2.201 4.9 4.9 4.9h16c2.699 0 4.9-2.201 4.9-4.9v-10c0-2.699-2.201-4.9-4.9-4.9zM8 8.9h16c1.733 0 3.1 1.367 3.1 3.1v10c0 1.733-1.367 3.1-3.1 3.1h-16c-1.733 0-3.1-1.367-3.1-3.1v-10c0-1.733 1.367-3.1 3.1-3.1z"></path>
<path d="M12 29.1c-0 0-0 0-0 0-0.497 0-0.9 0.403-0.9 0.9 0 0 0 0 0 0v-0c0 0 0 0 0 0 0 0.497 0.403 0.9 0.9 0.9 0 0 0 0 0 0h8c0 0 0 0 0 0 0.497 0 0.9-0.403 0.9-0.9 0-0 0-0 0-0v0c0-0 0-0 0-0 0-0.497-0.403-0.9-0.9-0.9-0 0-0 0-0 0h0z"></path>
<path d="M21.363 1.363l-6 6c-0.163 0.163-0.264 0.388-0.264 0.637s0.101 0.474 0.264 0.637v0c0.163 0.163 0.388 0.264 0.637 0.264s0.474-0.101 0.637-0.264v0l6-6c0.163-0.163 0.264-0.388 0.264-0.637s-0.101-0.474-0.264-0.637v0c-0.163-0.163-0.388-0.264-0.637-0.264s-0.474 0.101-0.637 0.264v0z"></path>
<path d="M9.363 1.363c-0.163 0.163-0.264 0.388-0.264 0.637s0.101 0.474 0.264 0.637v0l6 6c0.163 0.163 0.388 0.264 0.637 0.264s0.474-0.101 0.637-0.264v0c0.163-0.163 0.264-0.388 0.264-0.637s-0.101-0.474-0.264-0.637v0l-6-6c-0.163-0.163-0.388-0.264-0.637-0.264s-0.474 0.101-0.637 0.264v0z"></path>
</symbol>
<symbol id="icon-van" viewBox="0 0 46 32">
<path d="M2.608 1.8h12.409c0.105 0 0.203-0.040 0.278-0.112l1.192-1.163c0.346-0.338 0.807-0.524 1.297-0.524h18.817c0.876 0 1.69 0.425 2.176 1.136l2.255 3.3c0.32 0.468 0.349 1.067 0.077 1.564s-0.8 0.805-1.377 0.805h-9.698v0.956h4.967c1.317 0 2.501 0.763 3.018 1.945l2.908 6.65 2.548 0.994c1.36 0.531 2.24 1.797 2.24 3.227v6.158c0 0.918-0.766 1.666-1.708 1.666h-2.964c-0.345 2.039-2.164 3.599-4.35 3.599s-4.005-1.561-4.35-3.599h-16.203c-0.345 2.039-2.164 3.599-4.35 3.599s-4.005-1.561-4.35-3.599h-5.921c-0.837 0-1.518-0.664-1.518-1.481v-22.576c0-1.403 1.17-2.544 2.608-2.544zM36.692 30.594c1.637 0 2.969-1.299 2.969-2.896s-1.332-2.896-2.969-2.896c-1.637 0-2.969 1.299-2.969 2.896s1.332 2.896 2.969 2.896zM30.034 26.995h2.307c0.006-0.035 0.013-0.070 0.020-0.105 0.005-0.024 0.009-0.047 0.014-0.071 0.012-0.055 0.025-0.11 0.039-0.164 0.003-0.011 0.005-0.023 0.009-0.034 0.017-0.066 0.036-0.13 0.057-0.195 0.006-0.019 0.013-0.037 0.019-0.056 0.015-0.045 0.031-0.090 0.047-0.134 0.009-0.024 0.018-0.047 0.028-0.071 0.015-0.039 0.030-0.078 0.047-0.116 0.010-0.025 0.022-0.050 0.033-0.075 0.016-0.037 0.032-0.072 0.050-0.108 0.013-0.025 0.025-0.050 0.038-0.075 0.017-0.034 0.036-0.069 0.054-0.103 0.013-0.025 0.027-0.049 0.041-0.074 0.019-0.034 0.039-0.067 0.059-0.101 0.014-0.024 0.029-0.047 0.043-0.071 0.022-0.034 0.044-0.067 0.066-0.101 0.015-0.022 0.029-0.044 0.044-0.065 0.025-0.035 0.051-0.070 0.077-0.105 0.013-0.018 0.026-0.037 0.040-0.055 0.036-0.046 0.072-0.090 0.109-0.135 0.005-0.007 0.010-0.014 0.016-0.020 0.043-0.051 0.087-0.1 0.132-0.148 0.014-0.015 0.028-0.029 0.043-0.044 0.032-0.033 0.063-0.066 0.096-0.099 0.018-0.018 0.038-0.035 0.056-0.053 0.029-0.028 0.059-0.056 0.090-0.084 0.020-0.018 0.041-0.036 0.062-0.054 0.030-0.026 0.060-0.051 0.090-0.077l0.066-0.052c0.031-0.024 0.062-0.048 0.093-0.071 0.022-0.017 0.045-0.034 0.069-0.050 0.032-0.023 0.064-0.045 0.097-0.068 0.023-0.015 0.046-0.031 0.069-0.046 0.034-0.023 0.069-0.044 0.104-0.065 0.022-0.014 0.045-0.028 0.068-0.041 0.038-0.023 0.077-0.044 0.116-0.065 0.020-0.011 0.040-0.023 0.059-0.033 0.056-0.029 0.112-0.057 0.168-0.084 0.005-0.002 0.009-0.004 0.013-0.006 0.061-0.029 0.123-0.056 0.186-0.082 0.020-0.008 0.041-0.016 0.061-0.024 0.043-0.017 0.086-0.034 0.13-0.050 0.025-0.009 0.050-0.017 0.075-0.026 0.040-0.014 0.080-0.027 0.12-0.039 0.027-0.008 0.054-0.016 0.082-0.024 0.039-0.011 0.078-0.023 0.118-0.033 0.028-0.007 0.056-0.015 0.085-0.021 0.039-0.009 0.078-0.018 0.118-0.026 0.029-0.006 0.058-0.012 0.087-0.018 0.040-0.007 0.081-0.015 0.122-0.021 0.029-0.005 0.057-0.010 0.086-0.014 0.042-0.006 0.085-0.011 0.128-0.016 0.027-0.003 0.055-0.007 0.082-0.009 0.047-0.004 0.095-0.008 0.143-0.011 0.024-0.002 0.047-0.004 0.070-0.005 0.072-0.004 0.144-0.006 0.216-0.006s0.144 0.002 0.216 0.006c0.024 0.001 0.047 0.003 0.070 0.005 0.048 0.003 0.096 0.006 0.143 0.011 0.028 0.002 0.055 0.006 0.082 0.009 0.043 0.005 0.086 0.010 0.128 0.016 0.029 0.004 0.058 0.008 0.087 0.014 0.041 0.006 0.081 0.014 0.122 0.021 0.029 0.006 0.058 0.012 0.087 0.018 0.040 0.008 0.079 0.017 0.118 0.026 0.029 0.007 0.057 0.014 0.085 0.021 0.039 0.010 0.078 0.021 0.118 0.033 0.028 0.008 0.055 0.016 0.082 0.024 0.040 0.012 0.080 0.026 0.12 0.039 0.025 0.009 0.050 0.017 0.075 0.026 0.044 0.016 0.087 0.033 0.13 0.050 0.020 0.008 0.041 0.016 0.061 0.024 0.062 0.026 0.125 0.053 0.186 0.082 0.005 0.002 0.009 0.005 0.013 0.006 0.057 0.027 0.112 0.055 0.168 0.084 0.020 0.011 0.039 0.022 0.059 0.033 0.039 0.021 0.078 0.043 0.116 0.065 0.023 0.014 0.045 0.028 0.068 0.041 0.035 0.021 0.070 0.043 0.104 0.065 0.023 0.015 0.046 0.031 0.069 0.046 0.033 0.023 0.065 0.044 0.097 0.068 0.023 0.016 0.046 0.033 0.069 0.050 0.031 0.024 0.062 0.047 0.093 0.071l0.066 0.052c0.031 0.025 0.061 0.051 0.090 0.077 0.021 0.018 0.041 0.036 0.062 0.054 0.031 0.028 0.060 0.056 0.090 0.084 0.018 0.017 0.037 0.035 0.056 0.053 0.033 0.033 0.065 0.066 0.096 0.099 0.014 0.015 0.029 0.029 0.043 0.044 0.045 0.048 0.089 0.098 0.132 0.148 0.006 0.007 0.011 0.014 0.016 0.020 0.037 0.044 0.073 0.089 0.109 0.135 0.014 0.018 0.027 0.037 0.040 0.055 0.026 0.035 0.052 0.070 0.077 0.105 0.015 0.021 0.029 0.043 0.044 0.065 0.022 0.034 0.044 0.067 0.066 0.101 0.014 0.024 0.029 0.047 0.043 0.071 0.020 0.033 0.040 0.067 0.059 0.101 0.014 0.025 0.028 0.049 0.041 0.074 0.018 0.034 0.037 0.069 0.054 0.103 0.013 0.025 0.025 0.050 0.038 0.075 0.017 0.036 0.033 0.071 0.050 0.108 0.011 0.025 0.023 0.049 0.033 0.075 0.017 0.038 0.032 0.077 0.047 0.116 0.010 0.024 0.019 0.047 0.028 0.071 0.016 0.044 0.032 0.089 0.047 0.134 0.006 0.019 0.013 0.038 0.019 0.056 0.020 0.064 0.039 0.129 0.056 0.195 0.003 0.011 0.006 0.023 0.009 0.034 0.014 0.055 0.027 0.109 0.039 0.164 0.005 0.024 0.009 0.047 0.014 0.071 0.007 0.035 0.014 0.069 0.020 0.105h2.963c0.147 0 0.266-0.116 0.266-0.26v-2.946h-1.124v-1.406h1.124v-1.806c0-0.851-0.523-1.606-1.333-1.922l-2.697-1.052h-10.209v9.392zM30.034 16.197h9.257l-2.598-5.939c-0.29-0.662-0.954-1.090-1.692-1.090h-4.967v7.030zM11.789 30.594c1.637 0 2.969-1.299 2.969-2.896s-1.332-2.896-2.969-2.896c-0.051 0-0.102 0.001-0.153 0.004-1.364 0.067-2.488 1.038-2.756 2.309-0.010 0.047-0.019 0.095-0.027 0.143-0.015 0.096-0.025 0.193-0.030 0.291-0.003 0.049-0.004 0.099-0.004 0.149 0 1.597 1.332 2.896 2.969 2.896zM1.441 22.383h1.124v1.406h-1.124v3.131c0 0.041 0.035 0.075 0.077 0.075h5.92c0.006-0.035 0.013-0.069 0.020-0.104 0.005-0.024 0.009-0.048 0.014-0.072 0.012-0.054 0.024-0.107 0.038-0.16 0.003-0.012 0.006-0.025 0.009-0.038 0.017-0.065 0.036-0.129 0.056-0.193 0.006-0.020 0.013-0.039 0.020-0.058 0.015-0.044 0.030-0.089 0.046-0.132 0.009-0.025 0.019-0.048 0.028-0.072 0.015-0.038 0.031-0.077 0.046-0.114 0.011-0.026 0.022-0.051 0.034-0.076 0.016-0.036 0.032-0.071 0.050-0.106 0.012-0.026 0.025-0.051 0.038-0.076 0.017-0.034 0.035-0.068 0.054-0.102 0.014-0.025 0.028-0.049 0.042-0.074 0.020-0.034 0.039-0.067 0.059-0.1 0.014-0.024 0.029-0.048 0.044-0.071 0.021-0.034 0.043-0.067 0.066-0.1 0.014-0.023 0.029-0.045 0.044-0.066 0.025-0.035 0.051-0.070 0.076-0.104 0.014-0.019 0.028-0.038 0.042-0.057 0.035-0.044 0.070-0.088 0.106-0.132 0.006-0.008 0.012-0.016 0.018-0.023 0.043-0.051 0.087-0.1 0.132-0.148 0.014-0.015 0.029-0.030 0.043-0.045 0.032-0.033 0.063-0.066 0.096-0.098 0.018-0.018 0.037-0.035 0.056-0.053 0.029-0.028 0.059-0.056 0.089-0.083 0.020-0.018 0.041-0.036 0.062-0.055 0.029-0.025 0.059-0.051 0.090-0.075 0.022-0.018 0.044-0.036 0.066-0.053 0.030-0.024 0.061-0.047 0.092-0.071 0.022-0.017 0.046-0.034 0.069-0.050 0.032-0.023 0.064-0.045 0.096-0.067 0.024-0.016 0.047-0.031 0.070-0.047 0.034-0.023 0.069-0.044 0.103-0.065 0.023-0.014 0.046-0.028 0.069-0.042 0.038-0.023 0.077-0.044 0.116-0.065 0.020-0.011 0.040-0.023 0.061-0.033 0.055-0.029 0.11-0.057 0.167-0.083 0.005-0.002 0.009-0.005 0.014-0.007 0.061-0.029 0.123-0.056 0.186-0.082 0.020-0.008 0.041-0.016 0.061-0.024 0.043-0.017 0.086-0.034 0.13-0.050 0.025-0.009 0.050-0.017 0.076-0.026 0.039-0.014 0.079-0.027 0.119-0.039 0.027-0.008 0.055-0.016 0.082-0.024 0.039-0.011 0.078-0.023 0.118-0.033 0.028-0.007 0.056-0.015 0.085-0.021 0.039-0.009 0.078-0.018 0.118-0.026 0.029-0.006 0.058-0.012 0.087-0.018 0.040-0.007 0.081-0.015 0.122-0.021 0.029-0.005 0.057-0.010 0.086-0.014 0.042-0.006 0.085-0.011 0.128-0.016 0.027-0.003 0.055-0.007 0.082-0.009 0.047-0.004 0.095-0.008 0.143-0.011 0.024-0.002 0.047-0.004 0.070-0.005 0.072-0.004 0.144-0.006 0.216-0.006s0.144 0.002 0.216 0.006c0.024 0.001 0.047 0.003 0.070 0.005 0.048 0.003 0.096 0.006 0.143 0.011 0.028 0.002 0.055 0.006 0.082 0.009 0.043 0.005 0.086 0.010 0.128 0.016 0.029 0.004 0.058 0.008 0.086 0.014 0.041 0.006 0.081 0.014 0.122 0.021 0.029 0.006 0.058 0.012 0.087 0.018 0.040 0.008 0.079 0.017 0.118 0.026 0.029 0.007 0.057 0.014 0.085 0.021 0.039 0.010 0.078 0.021 0.118 0.033 0.027 0.008 0.055 0.016 0.082 0.024 0.040 0.012 0.080 0.026 0.119 0.039 0.025 0.009 0.051 0.017 0.076 0.026 0.044 0.016 0.086 0.033 0.13 0.050 0.020 0.008 0.041 0.016 0.061 0.024 0.062 0.026 0.124 0.053 0.186 0.082 0.005 0.002 0.010 0.005 0.014 0.007 0.056 0.026 0.112 0.054 0.167 0.083 0.021 0.011 0.040 0.022 0.060 0.033 0.039 0.021 0.078 0.043 0.116 0.065 0.023 0.014 0.046 0.028 0.069 0.042 0.035 0.021 0.069 0.042 0.103 0.065 0.023 0.015 0.046 0.031 0.070 0.047 0.032 0.022 0.065 0.044 0.096 0.067 0.023 0.016 0.046 0.033 0.069 0.050 0.031 0.024 0.062 0.047 0.092 0.071 0.023 0.017 0.044 0.035 0.066 0.053 0.031 0.025 0.061 0.050 0.090 0.076 0.021 0.018 0.042 0.036 0.062 0.054 0.030 0.028 0.060 0.056 0.090 0.084 0.018 0.017 0.037 0.035 0.056 0.053 0.032 0.032 0.065 0.065 0.096 0.098 0.014 0.015 0.029 0.029 0.043 0.044 0.045 0.048 0.089 0.098 0.132 0.148 0.006 0.007 0.012 0.015 0.017 0.021 0.036 0.044 0.073 0.088 0.107 0.134 0.014 0.018 0.028 0.037 0.042 0.055 0.026 0.035 0.052 0.070 0.077 0.105 0.015 0.021 0.029 0.044 0.044 0.066 0.023 0.033 0.044 0.066 0.066 0.1 0.015 0.024 0.029 0.047 0.044 0.071 0.020 0.033 0.040 0.067 0.059 0.101 0.014 0.025 0.028 0.049 0.041 0.074 0.019 0.034 0.037 0.069 0.055 0.103 0.013 0.025 0.025 0.050 0.037 0.075 0.017 0.036 0.034 0.072 0.050 0.108 0.012 0.025 0.023 0.049 0.033 0.075 0.017 0.038 0.032 0.077 0.047 0.116 0.009 0.024 0.018 0.047 0.028 0.071 0.017 0.045 0.032 0.090 0.047 0.135 0.006 0.019 0.013 0.037 0.019 0.055 0.020 0.064 0.039 0.129 0.057 0.195 0.002 0.010 0.005 0.021 0.007 0.031 0.014 0.056 0.028 0.111 0.040 0.168 0.005 0.023 0.009 0.046 0.013 0.069 0.007 0.035 0.014 0.070 0.021 0.106h12.453v-20.893c0-0.388 0.323-0.703 0.721-0.703h10.419c0.018 0 0.073 0 0.107-0.062s0.004-0.106-0.006-0.12l-2.255-3.3c-0.218-0.319-0.583-0.51-0.977-0.51h-18.817c-0.105 0-0.204 0.040-0.278 0.112l-1.192 1.163c-0.346 0.338-0.807 0.524-1.297 0.524h-12.409c-0.643 0-1.167 0.511-1.167 1.138v18.039z"></path>
<path d="M5.536 7.198h8.814c1.019 0 1.848 0.809 1.848 1.802v4.1c0 0.994-0.829 1.802-1.848 1.802h-8.815c-1.019 0-1.848-0.809-1.848-1.802v-4.1c0.001-0.994 0.83-1.802 1.848-1.802zM5.129 13.1c0 0.218 0.182 0.396 0.406 0.396h8.814c0.224 0 0.406-0.178 0.406-0.396v-4.1c0-0.218-0.182-0.396-0.406-0.396h-8.815c-0.224 0-0.406 0.178-0.406 0.396l0.001 4.1z"></path>
</symbol>

<symbol id="icon-logo" viewBox="0 0 39 32">
<path d="M12.6 31.61c-0.225-0.316-0.355-0.377-0.695-0.327-0.347 0.051-0.512-0.032-0.966-0.486-0.906-0.906-0.759-2.034 0.332-2.552 0.637-0.302 1.384-0.169 1.892 0.339l0.379 0.379 0.111 0.535c0.118 0.566-0.168 1.012-0.35 1.114l-0.239 0.134 0.32 0.341c0.222 0.237 0.293 0.428 0.23 0.627-0.134 0.424-0.68 0.369-1.015-0.103zM11.801 30.081c0.072-0.275 0.508-0.393 0.508-0.137 0 0.075 0.092 0.137 0.206 0.137 0.36 0 0.257-0.782-0.136-1.039-0.721-0.472-1.415 0.177-1.049 0.981 0.184 0.404 0.375 0.427 0.471 0.058zM15.238 31.117c-0.706-0.307-0.874-0.682-0.874-1.946 0-1.156 0.075-1.307 0.582-1.176l0.24 0.062v0.984c0 1.050 0.127 1.313 0.635 1.313 0.386 0 0.485-0.302 0.446-1.369-0.032-0.881 0.099-1.154 0.514-1.074l0.254 0.049 0.040 1.205 0.040 1.205-0.286 0.564c-0.227 0.447-0.938 0.466-1.591 0.182zM18.166 31.166l-0.24-0.14 0.002-1.192c0.002-1.311 0.081-1.765 0.32-1.837 0.087-0.026 0.973-0.174 1.562-0.147l0.736 0.197-0.085 0.594-1.576 0.082v0.278c0 0.227 0.081 0.273 0.445 0.253 0.763-0.042 0.809-0.019 0.763 0.378l-0.043 0.375-1.165-0.085v0.569h0.826c0.64 0 0.846 0.051 0.913 0.225 0.145 0.379-0.34 0.597-1.32 0.593-0.494-0.002-1.006-0.067-1.138-0.144zM22.44 31.195c-0.192-0.048-0.528-0.218-0.746-0.378l-0.396-0.292 0.48-0.48 0.508 0.2c0.498 0.196 0.846 0.189 0.846-0.017 0-0.057-0.231-0.18-0.514-0.273-0.7-0.231-0.959-0.442-1.066-0.869-0.129-0.512 0.433-1.060 1.087-1.060 0.637 0 1.177 0.259 1.177 0.565 0 0.332-0.417 0.546-0.727 0.373-0.132-0.074-0.377-0.111-0.544-0.083-0.24 0.040-0.138 0.127 0.483 0.412l0.788 0.361 0.204 0.558-0.204 0.558-0.445 0.271c-0.245 0.149-0.476 0.264-0.514 0.256s-0.226-0.055-0.418-0.102zM25.763 31.149c-0.101-0.101-0.164-0.598-0.164-1.293v-1.129l-0.514-0.043c-0.401-0.033-0.523-0.106-0.555-0.33l0.015-0.381 0.678-0.070c0.474-0.049 1.27 0.030 1.61 0.038l0.616 0.015 0.043 0.377c0.044 0.386-0.028 0.43-0.626 0.382l-0.308-0.025v1.046c0 1.38-0.298 1.909-0.795 1.412zM37.902 28.033c-0.279-0.054-0.602-0.177-0.718-0.274s-0.531-1.155-0.921-2.352l-0.71-2.177h-1.083l0.060 2.001 0.060 2.001-0.283 0.128c-0.184 0.084-0.592 0.067-1.173-0.049l-0.891-0.177-0.045-0.316c-0.025-0.174 0.037-0.414 0.137-0.535 0.14-0.168 0.191-1.154 0.224-4.264l0.042-4.045-0.296-0.4c-0.195-0.264-0.25-0.446-0.16-0.536 0.082-0.082 1.018-0.117 2.384-0.089 2.496 0.051 2.648 0.098 3.356 1.026l0.386 0.505 0.091 2.899-1.017 1.332 0.654 1.731c0.36 0.952 0.83 2.083 1.044 2.512l0.39 0.781-0.303 0.212c-0.324 0.227-0.442 0.235-1.228 0.082zM35.868 21.456c0.235-0.148 0.399-1.525 0.262-2.195-0.105-0.515-0.308-0.684-0.827-0.687-0.773-0.004-0.799 0.048-0.799 1.588v1.424l0.582-0.002c0.32-0.001 0.672-0.059 0.782-0.128zM1.843 27.89c-0.548-0.173-1.147-0.78-1.453-1.473l-0.257-0.581-0.012-3.422c-0.013-3.667 0.046-4.055 0.721-4.777 0.407-0.435 0.653-0.554 1.46-0.707 1.052-0.2 2.111 0.060 2.694 0.659s0.769 1.215 0.713 2.353l-0.044 0.89-0.606 0.043c-0.333 0.024-0.749 0.007-0.925-0.037l-0.319-0.080v-0.81c0-0.924-0.209-1.24-0.822-1.24-0.215 0-0.488 0.097-0.607 0.215l-0.215 0.215 0.004 3.175c0.005 3.513 0.046 3.701 0.818 3.701 0.51 0 0.812-0.361 0.818-0.979 0.002-0.25 0.070-0.577 0.15-0.726l0.145-0.272 0.74 0.030c0.407 0.016 0.804 0.069 0.882 0.117 0.213 0.132-0.056 1.972-0.366 2.503-0.425 0.727-1.238 1.183-2.248 1.26-0.481 0.037-1.053 0.010-1.271-0.059zM6.554 26.86c-0.143-0.172-0.134-0.304 0.049-0.721 0.123-0.281 0.35-1.096 0.504-1.812s0.399-1.764 0.543-2.329c0.245-0.961 0.839-3.62 1.033-4.624l0.086-0.445h0.657c0.362 0 0.718 0.077 0.793 0.171s0.211 0.51 0.302 0.925c0.277 1.253 1.508 6.332 1.677 6.919 0.087 0.301 0.251 0.713 0.364 0.916l0.206 0.368-0.183 0.22c-0.139 0.168-0.382 0.211-1.017 0.18l-0.835-0.040-0.083-0.768c-0.045-0.423-0.126-0.839-0.179-0.925-0.111-0.18-1.429-0.209-1.699-0.038-0.107 0.068-0.203 0.467-0.236 0.98-0.030 0.476-0.113 0.924-0.184 0.995s-0.465 0.154-0.877 0.184c-0.556 0.041-0.792 0.001-0.922-0.155zM9.909 22.123c-0.174-0.684-0.35-1.277-0.39-1.318s-0.114 0.103-0.163 0.32c-0.049 0.216-0.175 0.741-0.281 1.166-0.269 1.088-0.274 1.076 0.479 1.076h0.671zM28.514 26.861c-1.455-0.158-1.661-0.282-1.423-0.857 0.117-0.283 0.149-1.521 0.112-4.426-0.028-2.218-0.077-4.156-0.109-4.307l-0.058-0.274 4.108-0.076 0.172 0.236c0.219 0.299 0.223 1.036 0.008 1.252-0.099 0.099-0.581 0.164-1.216 0.164-0.735 0-1.1 0.058-1.211 0.192-0.102 0.123-0.145 0.628-0.12 1.404l0.040 1.212 0.454 0.044c0.25 0.024 0.543-0.030 0.651-0.12 0.426-0.354 0.988 0.665 0.694 1.258l-0.162 0.325-1.706 0.082v1.15c0 0.687 0.061 1.187 0.15 1.243 0.083 0.051 0.622 0.109 1.199 0.129l1.048 0.036 0.19 0.382c0.132 0.266 0.152 0.489 0.064 0.736l-0.125 0.354h-0.749c-0.412 0-1.318-0.062-2.012-0.137zM13.558 26.416l-0.288-0.24 0.141-0.89c0.127-0.799 0.109-6.801-0.024-7.878l-0.051-0.411h1.757l0.834 2.226c0.459 1.224 0.89 2.207 0.958 2.185s0.393-0.747 0.722-1.609c0.329-0.863 0.707-1.846 0.84-2.185l0.241-0.616h1.772l-0.057 0.343c-0.105 0.637-0.081 8.287 0.027 8.502 0.069 0.137 0.014 0.322-0.153 0.514-0.316 0.365-0.981 0.397-1.478 0.071-0.289-0.19-0.336-0.301-0.267-0.645 0.046-0.228 0.113-1.281 0.149-2.339 0.053-1.545 0.035-1.857-0.095-1.582-0.089 0.188-0.451 0.966-0.803 1.727s-0.717 1.432-0.81 1.489c-0.274 0.169-0.51-0.184-1.236-1.849l-0.686-1.573 0.001 1.986c0 1.093 0.059 2.078 0.129 2.19 0.091 0.144 0.044 0.293-0.163 0.514-0.355 0.378-1.051 0.412-1.461 0.071zM21.575 26.401c-0.183-0.203-0.202-0.331-0.090-0.625 0.084-0.221 0.141-1.876 0.141-4.099v-3.728l-0.218-0.311c-0.424-0.606-0.205-0.709 1.498-0.709 2.024 0 2.341 0.073 2.992 0.694l0.543 0.516-0.089 4.112-0.343 0.366c-0.497 0.531-0.979 0.742-1.761 0.77-0.379 0.013-0.764 0.070-0.855 0.127-0.12 0.074-0.145 0.478-0.090 1.462l0.075 1.359-0.258 0.161c-0.405 0.253-1.28 0.2-1.546-0.094zM24.336 21.882c0.13-0.083 0.166-0.517 0.137-1.676l-0.039-1.564-1.027-0.085v3.442l0.377-0.002c0.207-0.001 0.456-0.052 0.553-0.114zM8.701 15.696l-0.648-0.411h-2.228c-1.437 0-2.282-0.053-2.379-0.151-0.109-0.109-0.176-0.033-0.245 0.278l-0.094 0.429-1.446-0.039c-1.173-0.031-1.473-0.082-1.59-0.267-0.104-0.165-0.094-0.288 0.036-0.445 0.143-0.173 0.472-0.217 1.605-0.217h1.425l-0.486-0.741-0.029-2.454c-0.033-2.721 0.053-3.135 0.75-3.632l0.409-0.291 18.663 0.029 0.477 0.427c0.564 0.506 2.265 3.062 2.266 3.407 0.001 0.174-0.109 0.24-0.404 0.24-0.329 0-0.486-0.121-0.844-0.651-0.242-0.358-0.753-1.067-1.135-1.575l-0.696-0.925h-1.715v4.658l3.631-0.001 0.449-0.274c0.659-0.402 1.437-0.36 1.952 0.103 0.388 0.35 0.459 0.558 0.537 1.575 0.004 0.056 0.224 0.103 0.487 0.103h0.48v-0.407c0-0.305-0.051-0.387-0.206-0.328-0.162 0.062-0.206-0.041-0.206-0.493 0-0.677-0.168-1.030-0.704-1.481l-0.395-0.332 0.562-0.672c0.309-0.369 0.528-0.672 0.486-0.672s-0.369 0.099-0.726 0.221l-0.65 0.221-0.314-0.365c-0.375-0.436-0.401-0.736-0.074-0.862l0.24-0.092-0.343-0.080c-0.778-0.183-0.261-1.165 0.534-1.014l0.357 0.068 0.596-0.975c0.328-0.536 0.558-1.013 0.511-1.059s-0.158-0.012-0.247 0.077c-0.256 0.256-0.794 0.203-0.784-0.078 0.014-0.404 1.699-3.66 1.916-3.702 0.283-0.054 2.118 3.79 1.91 3.999-0.104 0.104-0.261 0.081-0.541-0.080-0.217-0.125-0.43-0.191-0.473-0.148-0.091 0.091 0.535 1.237 1.618 2.962 0.42 0.669 0.726 1.277 0.679 1.352-0.111 0.18-1.173 0.030-1.694-0.24-0.508-0.263-0.511-0.185-0.021 0.454 0.213 0.278 0.555 0.737 0.76 1.019s0.416 0.513 0.469 0.513c0.053-0 0.387-0.463 0.743-1.027l0.647-1.027h-0.399c-0.219 0-0.427-0.046-0.462-0.103s0.208-0.52 0.54-1.031c0.641-0.987 0.732-1.199 0.392-0.917-0.166 0.138-0.246 0.14-0.377 0.008s-0.057-0.366 0.332-1.083c0.274-0.504 0.596-0.936 0.716-0.96 0.142-0.028 0.413 0.257 0.77 0.809 0.654 1.011 0.702 1.289 0.204 1.164l-0.347-0.087 0.277 0.544c0.153 0.299 0.432 0.772 0.621 1.050 0.461 0.679 0.438 0.791-0.136 0.683-0.264-0.049-0.48-0.058-0.48-0.018s0.205 0.397 0.456 0.794c0.251 0.397 0.657 1.079 0.903 1.514l0.448 0.793-0.176 0.212c-0.183 0.221-1.166 0.217-1.665-0.007l-0.24-0.107v0.988h3.689l0.132 0.247c0.079 0.147 0.083 0.327 0.010 0.445l-0.122 0.198-5.793 0.1c-3.186 0.055-6.153 0.117-6.593 0.137l-0.8 0.037-0.648-0.754h-7.444l-0.468 0.411c-0.299 0.262-0.618 0.411-0.881 0.411-0.47 0-1.165-0.32-1.26-0.579-0.045-0.123-0.148-0.087-0.349 0.122-0.533 0.554-1.668 0.576-2.151 0.042l-0.238-0.263-0.403 0.339c-0.545 0.459-1.134 0.437-1.936-0.072zM10.158 14.861c0.075-0.12 0.096-0.382 0.045-0.582-0.073-0.293-0.172-0.364-0.503-0.364-0.518 0-0.797 0.483-0.547 0.95 0.187 0.35 0.785 0.348 1.005-0.004zM12.811 14.791c0.248-0.379 0.17-0.658-0.263-0.93-0.166-0.105-0.294-0.076-0.505 0.115-0.27 0.244-0.383 0.888-0.191 1.080 0.216 0.216 0.737 0.072 0.958-0.265zM15.196 15.006c0.17-0.091 0.265-0.287 0.265-0.545 0-0.322-0.073-0.422-0.364-0.495-0.728-0.183-1.163 0.55-0.573 0.963 0.37 0.259 0.338 0.255 0.671 0.077zM25.845 14.983c0.432-0.432-0.080-1.32-0.656-1.138-0.377 0.12-0.598 0.682-0.408 1.037 0.161 0.3 0.803 0.361 1.064 0.101zM32.86 14.46v-0.414l-0.377 0.105c-0.417 0.117-2.861 0.145-3.185 0.037-0.144-0.048-0.218 0.044-0.249 0.308l-0.043 0.377h3.854zM18.483 13.367h0.813l0.034 0.89 0.11-0.617c0.060-0.339 0.114-1.588 0.12-2.774l0.010-2.158h-1.027c-0.565 0-1.029 0.046-1.030 0.103s-0.034 0.904-0.072 1.884c-0.066 1.684 0.080 4.143 0.184 3.117l0.045-0.445zM18.022 11.342c-0.27-0.299-0.314-1.264-0.068-1.51 0.224-0.224 0.725-0.207 0.922 0.030 0.093 0.112 0.144 0.504 0.12 0.925l-0.042 0.73-0.35 0.041c-0.209 0.024-0.443-0.062-0.582-0.216zM16.557 11.243v-2.534h-12.415l-0.6 0.559v3.93l0.308 0.083c0.17 0.045 1.284 0.083 2.476 0.084 1.746 0.002 2.208-0.038 2.373-0.204 0.284-0.284 1.477-0.268 1.975 0.026l0.392 0.232 0.245-0.216c0.135-0.119 0.441-0.258 0.679-0.309 0.501-0.106 1.506 0.126 1.586 0.367 0.037 0.11 0.182 0.063 0.44-0.139 0.212-0.167 0.564-0.303 0.782-0.303 0.549 0 1.297 0.334 1.51 0.675 0.098 0.156 0.193 0.284 0.213 0.284s0.036-1.141 0.036-2.534zM4.802 11.421c-0.252-0.252-0.212-1.432 0.052-1.533 0.387-0.148 1.915-0.089 2.085 0.081 0.090 0.090 0.164 0.417 0.164 0.726s-0.074 0.636-0.164 0.726c-0.095 0.095-0.548 0.164-1.069 0.164s-0.974-0.070-1.069-0.164zM8.337 11.452c-0.134-0.085-0.206-0.349-0.206-0.756s0.072-0.672 0.206-0.756c0.278-0.175 2.017-0.17 2.126 0.007 0.192 0.31 0.187 1.028-0.008 1.326l-0.206 0.314-0.853-0.002c-0.469-0.001-0.946-0.061-1.059-0.132zM11.895 11.234c-0.172-0.453-0.169-0.833 0.008-1.164l0.142-0.265 0.988 0.065c1.083 0.071 1.331 0.241 1.331 0.911 0 0.56-0.447 0.804-1.472 0.804h-0.863zM20.968 11.421c-0.090-0.090-0.164-0.522-0.164-0.959v-0.795h0.723c0.565 0 0.777 0.063 0.969 0.288 0.404 0.472 0.773 1.135 0.773 1.391l0 0.24h-1.069c-0.648 0-1.133-0.065-1.233-0.164zM23.559 7.68l-0.465-0.478h-2.241c-1.824 0-2.241-0.035-2.241-0.191 0-0.319 0.331-0.357 3.135-0.357 1.918 0 2.749 0.048 2.866 0.164 0.273 0.272 0.195 0.894-0.14 1.129-0.398 0.279-0.376 0.285-0.913-0.268zM8.873 6.414c0.142-0.358 0.338-0.825 0.436-1.038l0.178-0.388 8.456 0.045c4.651 0.025 8.494 0.083 8.541 0.13s0.011 0.247-0.079 0.445l-0.164 0.36h-7.728l-0.361 0.284c-0.199 0.156-0.361 0.403-0.361 0.548v0.264h-9.175zM2.72 5.921c0-0.305 0.474-0.638 0.908-0.638 0.462 0 0.736 0.214 0.736 0.575v0.247h-0.822c-0.597 0-0.822-0.050-0.822-0.184zM5.527 5.967c-0.14-0.227 0.694-0.957 1.093-0.957 0.63 0 1.442 0.574 1.442 1.018 0 0.14-2.448 0.081-2.535-0.061zM30.668 4.753c0-0.246 0.524-0.702 0.807-0.702 0.321 0 0.943 0.487 0.803 0.628-0.179 0.179-1.61 0.245-1.61 0.074zM9.981 4.281c0-0.074 0.22-0.402 0.489-0.73l0.489-0.596 14.846 0.008 0.435 0.578c0.239 0.318 0.455 0.618 0.48 0.666s-3.732 0.115-8.347 0.148c-5.41 0.038-8.391 0.012-8.391-0.074zM12.106 1.994c0.335-0.371 2.223-1.27 3.492-1.665 1.331-0.414 3.925-0.441 5.412-0.057 1.135 0.293 2.983 1.143 3.562 1.638l0.411 0.351-13.126 0.010z"></path>
</symbol>
</defs>
</svg>
