<svg width="50" height="50" viewBox="0 0 50 50" fill="none" xmlns="http://www.w3.org/2000/svg">
<path d="M25.8181 4.91993C25.5719 4.76859 25.2886 4.68848 24.9997 4.68848C24.7108 4.68848 24.4275 4.76859 24.1813 4.91993C22.2215 6.1935 20.4147 7.68836 18.7966 9.375C15.1891 13.1113 13.2809 17.168 13.2809 21.0938C13.2809 24.2018 14.5156 27.1825 16.7133 29.3802C18.911 31.5779 21.8917 32.8125 24.9997 32.8125C28.1077 32.8125 31.0884 31.5779 33.2861 29.3802C35.4838 27.1825 36.7184 24.2018 36.7184 21.0938C36.7184 11.7344 26.2634 5.19336 25.8181 4.91993ZM24.9997 29.6875C23.7565 29.6875 22.5642 29.1936 21.6851 28.3146C20.8061 27.4355 20.3122 26.2432 20.3122 25C20.3122 20.3125 24.9997 17.1875 24.9997 17.1875C24.9997 17.1875 29.6872 20.3125 29.6872 25C29.6872 26.2432 29.1933 27.4355 28.3143 28.3146C27.4352 29.1936 26.2429 29.6875 24.9997 29.6875ZM43.6755 44.2227C43.6133 44.4183 43.5132 44.5997 43.3809 44.7566C43.2486 44.9135 43.0867 45.0428 42.9044 45.1371C42.7221 45.2314 42.5231 45.2889 42.3186 45.3063C42.1141 45.3236 41.9082 45.3005 41.7126 45.2383L24.9997 39.9199L8.2868 45.2383C8.09123 45.3005 7.88532 45.3236 7.68083 45.3062C7.47635 45.2888 7.27729 45.2313 7.09501 45.137C6.91274 45.0427 6.75083 44.9134 6.61853 44.7565C6.48622 44.5996 6.38611 44.4182 6.32391 44.2227C6.26171 44.0271 6.23864 43.8212 6.25602 43.6167C6.2734 43.4122 6.33089 43.2131 6.4252 43.0309C6.51951 42.8486 6.64879 42.6867 6.80568 42.5544C6.96256 42.4221 7.14396 42.322 7.33954 42.2598L19.8395 38.2813L7.33954 34.3008C7.13856 34.2433 6.95118 34.146 6.78847 34.0147C6.62577 33.8835 6.49106 33.7209 6.39232 33.5367C6.29358 33.3524 6.23282 33.1502 6.21363 32.942C6.19444 32.7339 6.21722 32.524 6.28061 32.3248C6.344 32.1256 6.44673 31.9411 6.58269 31.7823C6.71866 31.6236 6.88511 31.4937 7.07218 31.4004C7.25925 31.3071 7.46314 31.2523 7.67177 31.2392C7.88041 31.2261 8.08954 31.255 8.2868 31.3242L24.9997 36.6406L41.7126 31.3242C41.9098 31.255 42.119 31.2261 42.3276 31.2392C42.5362 31.2523 42.7401 31.3071 42.9272 31.4004C43.1143 31.4937 43.2807 31.6236 43.4167 31.7823C43.5527 31.9411 43.6554 32.1256 43.7188 32.3248C43.7822 32.524 43.8049 32.7339 43.7858 32.942C43.7666 33.1502 43.7058 33.3524 43.6071 33.5367C43.5083 33.7209 43.3736 33.8835 43.2109 34.0147C43.0482 34.146 42.8608 34.2433 42.6598 34.3008L30.1598 38.2813L42.6598 42.2598C42.8554 42.3219 43.0369 42.422 43.1938 42.5543C43.3507 42.6866 43.48 42.8485 43.5743 43.0308C43.6686 43.2131 43.7261 43.4122 43.7434 43.6167C43.7608 43.8212 43.7377 44.0271 43.6755 44.2227Z" fill="#888888"/>
</svg>
